<?xml version="1.0" encoding="UTF-8"?>
<!DOCTYPE svg  PUBLIC '-//W3C//DTD SVG 1.1//EN'  'http://www.w3.org/Graphics/SVG/1.1/DTD/svg11.dtd'>
<svg enable-background="new 0 0 1651.616 1651.616" version="1.1" viewBox="0 0 1651.616 1651.616" xml:space="preserve" xmlns="http://www.w3.org/2000/svg">
		<path d="m1058.1 40.357c-0.317 0-1.372-0.59-2.344-1.312-2.177-1.616-4.528-2.048-11.555-2.122-5.476-0.058-10.286 0.715-12.848 2.063-1.237 0.651-7.933 2.69-10.669 3.25-0.605 0.124-2.328 0.587-3.827 1.03-3.668 1.083-7.261 1.023-9.569-0.16-2.441-1.251-3.966-4.007-3.531-6.381 0.191-1.041 0.058-2.082-0.322-2.528-1.471-1.726-6.829-0.264-8.205 2.238-0.409 0.743-0.743 2.633-0.743 4.2 0 2.516 0.187 2.992 1.603 4.079 2.589 1.987 4.063 2.56 7.974 3.1 6.173 0.852 16.326-1.148 25.99-5.12 1.842-0.757 3.752-1.293 4.245-1.192 0.801 0.165 0.775 0.404-0.243 2.247-0.962 1.741-1.041 2.295-0.504 3.558 1.393 3.273 5.221 2.848 9.582-1.065 6.577-5.901 16.119-1.433 15.422 7.22-0.343 4.253-3.315 7.124-8.24 7.959-2.51 0.426-5.634-0.762-8.811-3.35-5.164-4.206-11.051-0.566-7.146 4.417 1.926 2.458 1.786 3.075-0.602 2.639-1.083-0.198-2.743-0.686-3.69-1.086-1.809-0.763-10.008-3.668-15.117-5.357-2.117-0.7-4.563-0.993-8.261-0.991-6.772 4e-3 -9.854 1.334-12.008 5.184-1.758 3.142-1.544 5.318 0.757 7.679 1.433 1.471 2.067 1.729 4.244 1.729 1.408 0 2.792-0.299 3.078-0.665 0.285-0.366 0.558-1.862 0.608-3.324 0.108-3.188 1.401-5.112 3.907-5.812 2.01-0.561 10.619 0.43 13.388 1.542 2.626 1.054 5.119 1.832 10.416 3.248 7.888 2.109 10.138 2.46 14.539 2.267 3.517-0.155 4.77-0.491 8.201-2.2 6.774-3.375 9.848-8.97 9.044-16.46-0.341-3.183-3.664-10.524-4.763-10.524z"/>
		<path d="m40.357 593.48c0 0.317-0.59 1.372-1.312 2.344-1.616 2.177-2.048 4.528-2.122 11.555-0.058 5.476 0.715 10.286 2.063 12.848 0.651 1.237 2.69 7.933 3.25 10.669 0.124 0.606 0.587 2.328 1.03 3.827 1.083 3.668 1.023 7.261-0.16 9.569-1.251 2.441-4.007 3.966-6.381 3.531-1.041-0.191-2.082-0.058-2.528 0.322-1.726 1.471-0.264 6.829 2.238 8.205 0.743 0.409 2.633 0.743 4.2 0.743 2.516 0 2.992-0.187 4.079-1.603 1.987-2.589 2.56-4.063 3.1-7.974 0.852-6.172-1.148-16.326-5.12-25.99-0.757-1.842-1.293-3.752-1.192-4.246 0.165-0.801 0.404-0.775 2.247 0.243 1.741 0.962 2.295 1.041 3.558 0.504 3.273-1.393 2.848-5.221-1.065-9.582-5.901-6.577-1.433-16.119 7.22-15.422 4.253 0.343 7.124 3.315 7.959 8.24 0.426 2.51-0.762 5.634-3.35 8.811-4.206 5.164-0.566 11.051 4.417 7.146 2.458-1.926 3.075-1.786 2.639 0.602-0.198 1.083-0.686 2.743-1.086 3.69-0.763 1.809-3.668 10.008-5.357 15.117-0.7 2.117-0.993 4.563-0.991 8.261 4e-3 6.772 1.334 9.854 5.184 12.008 3.142 1.758 5.318 1.544 7.679-0.757 1.471-1.433 1.729-2.067 1.729-4.244 0-1.408-0.299-2.793-0.665-3.078s-1.862-0.558-3.324-0.608c-3.188-0.108-5.112-1.401-5.812-3.907-0.561-2.01 0.43-10.619 1.542-13.388 1.054-2.626 1.832-5.119 3.248-10.416 2.109-7.888 2.46-10.138 2.267-14.539-0.155-3.517-0.491-4.769-2.2-8.201-3.375-6.774-8.97-9.848-16.46-9.044-3.183 0.341-10.524 3.665-10.524 4.764z"/>
		<path d="m593.48 1611.3c0.317 0 1.372 0.59 2.344 1.312 2.177 1.616 4.528 2.048 11.555 2.122 5.476 0.057 10.286-0.715 12.848-2.063 1.237-0.651 7.933-2.69 10.669-3.25 0.606-0.124 2.328-0.587 3.827-1.03 3.668-1.083 7.261-1.023 9.569 0.16 2.441 1.251 3.966 4.007 3.531 6.381-0.191 1.041-0.058 2.082 0.322 2.528 1.471 1.726 6.829 0.264 8.205-2.238 0.409-0.743 0.743-2.633 0.743-4.2 0-2.516-0.187-2.992-1.603-4.079-2.589-1.987-4.063-2.56-7.974-3.1-6.172-0.852-16.326 1.148-25.99 5.12-1.842 0.757-3.752 1.293-4.246 1.192-0.801-0.165-0.775-0.404 0.243-2.247 0.962-1.741 1.041-2.295 0.504-3.557-1.393-3.273-5.221-2.848-9.582 1.065-6.577 5.901-16.119 1.433-15.422-7.22 0.343-4.253 3.315-7.124 8.24-7.959 2.51-0.426 5.634 0.762 8.811 3.35 5.164 4.206 11.051 0.566 7.146-4.417-1.926-2.458-1.786-3.075 0.602-2.639 1.083 0.198 2.743 0.686 3.69 1.086 1.809 0.763 10.008 3.668 15.117 5.357 2.117 0.7 4.563 0.993 8.261 0.991 6.772-4e-3 9.854-1.334 12.008-5.184 1.758-3.142 1.544-5.318-0.757-7.679-1.433-1.471-2.067-1.729-4.244-1.729-1.408 0-2.793 0.299-3.078 0.665s-0.558 1.862-0.608 3.324c-0.108 3.188-1.401 5.112-3.907 5.812-2.01 0.561-10.619-0.43-13.388-1.542-2.626-1.054-5.119-1.832-10.416-3.248-7.888-2.109-10.138-2.46-14.539-2.267-3.517 0.155-4.769 0.49-8.201 2.2-6.774 3.375-9.848 8.969-9.044 16.46 0.341 3.182 3.665 10.523 4.764 10.523z"/>
		<path d="m1611.3 1058.1c0-0.317 0.59-1.372 1.312-2.344 1.616-2.177 2.048-4.528 2.122-11.555 0.057-5.476-0.715-10.286-2.063-12.848-0.651-1.237-2.69-7.933-3.25-10.669-0.124-0.605-0.587-2.328-1.03-3.827-1.083-3.668-1.023-7.261 0.16-9.569 1.251-2.441 4.007-3.966 6.381-3.531 1.041 0.191 2.082 0.058 2.528-0.322 1.726-1.471 0.264-6.829-2.238-8.205-0.743-0.409-2.633-0.743-4.2-0.743-2.516 0-2.992 0.187-4.079 1.603-1.987 2.589-2.56 4.063-3.1 7.974-0.852 6.173 1.148 16.326 5.12 25.99 0.757 1.842 1.293 3.752 1.192 4.245-0.165 0.801-0.404 0.775-2.247-0.243-1.741-0.962-2.295-1.041-3.557-0.504-3.273 1.393-2.848 5.221 1.065 9.582 5.901 6.577 1.433 16.119-7.22 15.422-4.253-0.343-7.124-3.315-7.959-8.24-0.426-2.51 0.762-5.634 3.35-8.811 4.206-5.164 0.566-11.051-4.417-7.146-2.458 1.926-3.075 1.786-2.639-0.602 0.198-1.083 0.686-2.743 1.086-3.69 0.763-1.809 3.668-10.008 5.357-15.117 0.7-2.117 0.993-4.563 0.991-8.261-4e-3 -6.772-1.334-9.854-5.184-12.008-3.142-1.758-5.318-1.544-7.679 0.757-1.471 1.433-1.729 2.067-1.729 4.244 0 1.408 0.299 2.792 0.665 3.078 0.366 0.285 1.862 0.558 3.324 0.608 3.188 0.108 5.112 1.401 5.812 3.907 0.561 2.01-0.43 10.619-1.542 13.388-1.054 2.626-1.832 5.119-3.248 10.416-2.109 7.888-2.46 10.138-2.267 14.539 0.155 3.517 0.49 4.77 2.2 8.201 3.375 6.774 8.969 9.848 16.46 9.044 3.182-0.341 10.523-3.664 10.523-4.763z"/>
		<path d="m1611.3 593.48c0 0.317 0.59 1.372 1.312 2.344 1.616 2.177 2.048 4.528 2.122 11.555 0.057 5.476-0.715 10.286-2.063 12.848-0.651 1.237-2.69 7.933-3.25 10.669-0.124 0.606-0.587 2.328-1.03 3.827-1.083 3.668-1.023 7.261 0.16 9.569 1.251 2.441 4.007 3.966 6.381 3.531 1.041-0.191 2.082-0.058 2.528 0.322 1.726 1.471 0.264 6.829-2.238 8.205-0.743 0.409-2.633 0.743-4.2 0.743-2.516 0-2.992-0.187-4.079-1.603-1.987-2.589-2.56-4.063-3.1-7.974-0.852-6.172 1.148-16.326 5.12-25.99 0.757-1.842 1.293-3.752 1.192-4.246-0.165-0.801-0.404-0.775-2.247 0.243-1.741 0.962-2.295 1.041-3.557 0.504-3.273-1.393-2.848-5.221 1.065-9.582 5.901-6.577 1.433-16.119-7.22-15.422-4.253 0.343-7.124 3.315-7.959 8.24-0.426 2.51 0.762 5.634 3.35 8.811 4.206 5.164 0.566 11.051-4.417 7.146-2.458-1.926-3.075-1.786-2.639 0.602 0.198 1.083 0.686 2.743 1.086 3.69 0.763 1.809 3.668 10.008 5.357 15.117 0.7 2.117 0.993 4.563 0.991 8.261-4e-3 6.772-1.334 9.854-5.184 12.008-3.142 1.758-5.318 1.544-7.679-0.757-1.471-1.433-1.729-2.067-1.729-4.244 0-1.408 0.299-2.793 0.665-3.078s1.862-0.558 3.324-0.608c3.188-0.108 5.112-1.401 5.812-3.907 0.561-2.01-0.43-10.619-1.542-13.388-1.054-2.626-1.832-5.119-3.248-10.416-2.109-7.888-2.46-10.138-2.267-14.539 0.155-3.517 0.49-4.769 2.2-8.201 3.375-6.774 8.969-9.848 16.46-9.044 3.182 0.341 10.523 3.665 10.523 4.764z"/>
		<path d="m593.48 40.357c0.317 0 1.372-0.59 2.344-1.312 2.177-1.616 4.528-2.048 11.555-2.122 5.476-0.058 10.286 0.715 12.848 2.063 1.237 0.651 7.933 2.69 10.669 3.25 0.606 0.124 2.328 0.587 3.827 1.03 3.668 1.083 7.261 1.023 9.569-0.16 2.441-1.251 3.966-4.007 3.531-6.381-0.191-1.041-0.058-2.082 0.322-2.528 1.471-1.726 6.829-0.264 8.205 2.238 0.409 0.743 0.743 2.633 0.743 4.2 0 2.516-0.187 2.992-1.603 4.079-2.589 1.987-4.063 2.56-7.974 3.1-6.172 0.852-16.326-1.148-25.99-5.12-1.842-0.757-3.752-1.293-4.246-1.192-0.801 0.165-0.775 0.404 0.243 2.247 0.962 1.741 1.041 2.295 0.504 3.558-1.393 3.273-5.221 2.848-9.582-1.065-6.577-5.901-16.119-1.433-15.422 7.22 0.343 4.253 3.315 7.124 8.24 7.959 2.51 0.426 5.634-0.762 8.811-3.35 5.164-4.206 11.051-0.566 7.146 4.417-1.926 2.458-1.786 3.075 0.602 2.639 1.083-0.198 2.743-0.686 3.69-1.086 1.809-0.763 10.008-3.668 15.117-5.357 2.117-0.7 4.563-0.993 8.261-0.991 6.772 4e-3 9.854 1.334 12.008 5.184 1.758 3.142 1.544 5.318-0.757 7.679-1.433 1.471-2.067 1.729-4.244 1.729-1.408 0-2.793-0.299-3.078-0.665s-0.558-1.862-0.608-3.324c-0.108-3.188-1.401-5.112-3.907-5.812-2.01-0.561-10.619 0.43-13.388 1.542-2.626 1.054-5.119 1.832-10.416 3.248-7.888 2.109-10.138 2.46-14.539 2.267-3.517-0.155-4.769-0.491-8.201-2.2-6.774-3.375-9.848-8.97-9.044-16.46 0.341-3.183 3.665-10.524 4.764-10.524z"/>
		<path d="m40.357 1058.1c0-0.317-0.59-1.372-1.312-2.344-1.616-2.177-2.048-4.528-2.122-11.555-0.058-5.476 0.715-10.286 2.063-12.848 0.651-1.237 2.69-7.933 3.25-10.669 0.124-0.605 0.587-2.328 1.03-3.827 1.083-3.668 1.023-7.261-0.16-9.569-1.251-2.441-4.007-3.966-6.381-3.531-1.041 0.191-2.082 0.058-2.528-0.322-1.726-1.471-0.264-6.829 2.238-8.205 0.743-0.409 2.633-0.743 4.2-0.743 2.516 0 2.992 0.187 4.079 1.603 1.987 2.589 2.56 4.063 3.1 7.974 0.852 6.173-1.148 16.326-5.12 25.99-0.757 1.842-1.293 3.752-1.192 4.245 0.165 0.801 0.404 0.775 2.247-0.243 1.741-0.962 2.295-1.041 3.558-0.504 3.273 1.393 2.848 5.221-1.065 9.582-5.901 6.577-1.433 16.119 7.22 15.422 4.253-0.343 7.124-3.315 7.959-8.24 0.426-2.51-0.762-5.634-3.35-8.811-4.206-5.164-0.566-11.051 4.417-7.146 2.458 1.926 3.075 1.786 2.639-0.602-0.198-1.083-0.686-2.743-1.086-3.69-0.763-1.809-3.668-10.008-5.357-15.117-0.7-2.117-0.993-4.563-0.991-8.261 4e-3 -6.772 1.334-9.854 5.184-12.008 3.142-1.758 5.318-1.544 7.679 0.757 1.471 1.433 1.729 2.067 1.729 4.244 0 1.408-0.299 2.792-0.665 3.078-0.366 0.285-1.862 0.558-3.324 0.608-3.188 0.108-5.112 1.401-5.812 3.907-0.561 2.01 0.43 10.619 1.542 13.388 1.054 2.626 1.832 5.119 3.248 10.416 2.109 7.888 2.46 10.138 2.267 14.539-0.155 3.517-0.491 4.77-2.2 8.201-3.375 6.774-8.97 9.848-16.46 9.044-3.183-0.341-10.524-3.664-10.524-4.763z"/>
		<path d="m1058.1 1611.3c-0.317 0-1.372 0.59-2.344 1.312-2.177 1.616-4.528 2.048-11.555 2.122-5.476 0.057-10.286-0.715-12.848-2.063-1.237-0.651-7.933-2.69-10.669-3.25-0.605-0.124-2.328-0.587-3.827-1.03-3.668-1.083-7.261-1.023-9.569 0.16-2.441 1.251-3.966 4.007-3.531 6.381 0.191 1.041 0.058 2.082-0.322 2.528-1.471 1.726-6.829 0.264-8.205-2.238-0.409-0.743-0.743-2.633-0.743-4.2 0-2.516 0.187-2.992 1.603-4.079 2.589-1.987 4.063-2.56 7.974-3.1 6.173-0.852 16.326 1.148 25.99 5.12 1.842 0.757 3.752 1.293 4.245 1.192 0.801-0.165 0.775-0.404-0.243-2.247-0.962-1.741-1.041-2.295-0.504-3.557 1.393-3.273 5.221-2.848 9.582 1.065 6.577 5.901 16.119 1.433 15.422-7.22-0.343-4.253-3.315-7.124-8.24-7.959-2.51-0.426-5.634 0.762-8.811 3.35-5.164 4.206-11.051 0.566-7.146-4.417 1.926-2.458 1.786-3.075-0.602-2.639-1.083 0.198-2.743 0.686-3.69 1.086-1.809 0.763-10.008 3.668-15.117 5.357-2.117 0.7-4.563 0.993-8.261 0.991-6.772-4e-3 -9.854-1.334-12.008-5.184-1.758-3.142-1.544-5.318 0.757-7.679 1.433-1.471 2.067-1.729 4.244-1.729 1.408 0 2.792 0.299 3.078 0.665 0.285 0.366 0.558 1.862 0.608 3.324 0.108 3.188 1.401 5.112 3.907 5.812 2.01 0.561 10.619-0.43 13.388-1.542 2.626-1.054 5.119-1.832 10.416-3.248 7.888-2.109 10.138-2.46 14.539-2.267 3.517 0.155 4.77 0.49 8.201 2.2 6.774 3.375 9.848 8.969 9.044 16.46-0.341 3.182-3.664 10.523-4.763 10.523z"/>
		<path d="m1048.5 58.45c0.896 0 3.431-1.469 4.476-2.593 1.377-1.481 0.97-5.534-0.708-7.056-2.175-1.972-7.703-1.14-7.703 1.16 0 0.579-0.298 1.517-0.662 2.084-0.956 1.49 0.013 3.721 2.253 5.191 1.018 0.668 2.073 1.214 2.344 1.214z"/>
		<path d="m58.45 603.16c0-0.896-1.469-3.431-2.593-4.476-1.481-1.377-5.534-0.97-7.056 0.708-1.972 2.175-1.14 7.703 1.16 7.703 0.579 0 1.517 0.298 2.084 0.662 1.49 0.956 3.721-0.013 5.191-2.253 0.668-1.018 1.214-2.073 1.214-2.344z"/>
		<path d="m603.16 1593.2c-0.896 0-3.431 1.469-4.476 2.593-1.377 1.481-0.97 5.534 0.708 7.056 2.175 1.972 7.703 1.14 7.703-1.16 0-0.579 0.298-1.517 0.662-2.084 0.956-1.49-0.013-3.721-2.253-5.191-1.018-0.668-2.073-1.214-2.344-1.214z"/>
		<path d="m1593.2 1048.5c0 0.896 1.469 3.431 2.593 4.476 1.481 1.377 5.534 0.97 7.056-0.708 1.972-2.175 1.14-7.703-1.16-7.703-0.579 0-1.517-0.298-2.084-0.662-1.49-0.956-3.721 0.013-5.191 2.253-0.668 1.018-1.214 2.073-1.214 2.344z"/>
		<path d="m1593.2 603.16c0-0.896 1.469-3.431 2.593-4.476 1.481-1.377 5.534-0.97 7.056 0.708 1.972 2.175 1.14 7.703-1.16 7.703-0.579 0-1.517 0.298-2.084 0.662-1.49 0.956-3.721-0.013-5.191-2.253-0.668-1.018-1.214-2.073-1.214-2.344z"/>
		<path d="m603.16 58.45c-0.896 0-3.431-1.469-4.476-2.593-1.377-1.481-0.97-5.534 0.708-7.056 2.175-1.972 7.703-1.14 7.703 1.16 0 0.579 0.298 1.517 0.662 2.084 0.956 1.49-0.013 3.721-2.253 5.191-1.018 0.668-2.073 1.214-2.344 1.214z"/>
		<path d="m58.45 1048.5c0 0.896-1.469 3.431-2.593 4.476-1.481 1.377-5.534 0.97-7.056-0.708-1.972-2.175-1.14-7.703 1.16-7.703 0.579 0 1.517-0.298 2.084-0.662 1.49-0.956 3.721 0.013 5.191 2.253 0.668 1.018 1.214 2.073 1.214 2.344z"/>
		<path d="m1048.5 1593.2c0.896 0 3.431 1.469 4.476 2.593 1.377 1.481 0.97 5.534-0.708 7.056-2.175 1.972-7.703 1.14-7.703-1.16 0-0.579-0.298-1.517-0.662-2.084-0.956-1.49 0.013-3.721 2.253-5.191 1.018-0.668 2.073-1.214 2.344-1.214z"/>
		<path d="m899.9 50.341c2.408-0.249 4.556-0.604 7.16-1.109 7.85-1.523 8.21-1.619 11.57-3.079 1.275-0.554 2.782-1.007 3.35-1.007s1.954-0.375 3.081-0.833c2.38-0.968 9.735-1.071 13.121-0.184 4.991 1.307 5.194 1.291 5.194-0.417 0-0.855 0.361-2.02 0.803-2.588s0.811-1.407 0.82-1.865c0.027-1.293 2.79-3.565 5.445-4.476 2.954-1.014 7.23-0.597 8.563 0.836 0.773 0.831 0.813 1.228 0.255 2.539-0.984 2.312-0.223 6.387 1.537 8.229 1.578 1.652 4.445 3.016 6.336 3.016 0.665 0 1.393 0.18 1.619 0.399 0.225 0.22 3.772 0.422 7.882 0.449 6.939 0.047 17.991 0.504 24.42 1.011 2.493 0.196 24.32 0.836 34.125 0.999 4.927 0.082 5.869 1.096 1.577 1.697-1.594 0.223-11.878 0.447-22.853 0.498-10.976 0.051-22.047 0.263-24.602 0.473-2.556 0.209-7.723 0.461-11.481 0.559-6.108 0.16-9.567 0.748-11.208 1.905-0.301 0.212-1.425 0.661-2.5 0.997-2.28 0.714-4.958 3.316-5.958 5.787-0.561 1.388-0.568 2.203-0.033 4.062 1.079 3.751 0.302 4.579-4.295 4.579-3.23 0-4.013-0.202-5.879-1.518h-2e-3c-2.54-1.791-3.779-3.514-5.405-7.514-0.753-1.853-1.473-2.877-1.946-2.768-4.051 0.937-6.742 1.117-9.84 0.661-8.063-1.188-10.611-1.734-12.709-2.72-1.217-0.572-2.647-1.041-3.178-1.041s-1.53-0.217-2.221-0.482c-3.718-1.428-8.158-2.41-12.746-2.841h-148.18c-4.588 0.431-9.028 1.413-12.746 2.841-0.691 0.265-1.69 0.482-2.221 0.482s-1.961 0.468-3.178 1.041c-2.098 0.987-4.647 1.532-12.709 2.72-3.098 0.457-5.789 0.276-9.84-0.661-0.473-0.109-1.193 0.915-1.946 2.768-1.625 4-2.865 5.723-5.405 7.514h-2e-3c-1.867 1.316-2.65 1.518-5.879 1.518-4.597 0-5.374-0.828-4.295-4.579 0.535-1.86 0.528-2.675-0.033-4.062-0.999-2.471-3.678-5.073-5.958-5.787-1.074-0.336-2.199-0.785-2.5-0.997-1.641-1.157-5.1-1.745-11.208-1.905-3.759-0.098-8.925-0.35-11.481-0.559-2.555-0.209-13.627-0.422-24.602-0.473-10.976-0.051-21.26-0.275-22.853-0.498-4.291-0.601-3.349-1.614 1.577-1.697 9.805-0.164 31.632-0.803 34.125-0.999 6.429-0.507 17.481-0.965 24.42-1.011 4.11-0.028 7.656-0.23 7.882-0.449 0.225-0.22 0.954-0.399 1.619-0.399 1.891 0 4.758-1.365 6.336-3.016 1.76-1.843 2.522-5.917 1.537-8.229-0.558-1.311-0.518-1.707 0.255-2.539 1.332-1.433 5.609-1.851 8.563-0.836 2.654 0.911 5.418 3.183 5.445 4.476 0.01 0.458 0.379 1.297 0.82 1.865s0.803 1.733 0.803 2.588c0 1.708 0.203 1.724 5.194 0.417 3.386-0.887 10.741-0.783 13.121 0.184 1.126 0.458 2.513 0.833 3.081 0.833s2.076 0.453 3.35 1.007c3.36 1.46 3.72 1.556 11.57 3.079 2.604 0.505 4.752 0.86 7.16 1.109h148.17zm701.38 849.56c0.249 2.408 0.604 4.556 1.109 7.16 1.524 7.85 1.619 8.21 3.079 11.57 0.554 1.275 1.007 2.782 1.007 3.35s0.375 1.954 0.833 3.081c0.968 2.38 1.071 9.735 0.184 13.121-1.307 4.991-1.291 5.194 0.417 5.194 0.855 0 2.02 0.361 2.588 0.803s1.407 0.811 1.865 0.82c1.293 0.027 3.565 2.79 4.476 5.445 1.014 2.954 0.597 7.23-0.836 8.563-0.831 0.773-1.228 0.813-2.539 0.255-2.312-0.984-6.387-0.223-8.229 1.537-1.651 1.578-3.016 4.445-3.016 6.336 0 0.665-0.18 1.393-0.399 1.619s-0.422 3.772-0.449 7.882c-0.047 6.939-0.504 17.991-1.011 24.42-0.197 2.493-0.836 24.32-1 34.125-0.082 4.927-1.096 5.869-1.697 1.577-0.223-1.594-0.447-11.878-0.498-22.853-0.051-10.976-0.263-22.047-0.473-24.602-0.209-2.556-0.461-7.723-0.559-11.481-0.16-6.108-0.747-9.567-1.905-11.208-0.212-0.301-0.661-1.425-0.997-2.5-0.714-2.28-3.316-4.958-5.787-5.958-1.388-0.561-2.203-0.568-4.062-0.033-3.751 1.079-4.579 0.302-4.579-4.295 0-3.23 0.202-4.013 1.519-5.879v-2e-3c1.791-2.54 3.514-3.779 7.514-5.405 1.853-0.753 2.877-1.473 2.768-1.946-0.937-4.051-1.117-6.742-0.661-9.84 1.188-8.063 1.734-10.611 2.72-12.709 0.572-1.217 1.041-2.647 1.041-3.178s0.217-1.53 0.482-2.221c1.428-3.718 2.41-8.158 2.841-12.746v-148.18c-0.431-4.588-1.413-9.028-2.841-12.746-0.265-0.691-0.482-1.69-0.482-2.221s-0.468-1.961-1.041-3.178c-0.987-2.098-1.532-4.647-2.72-12.709-0.457-3.098-0.276-5.789 0.661-9.84 0.109-0.473-0.915-1.193-2.768-1.946-4-1.625-5.723-2.865-7.514-5.405v-2e-3c-1.316-1.867-1.519-2.65-1.519-5.879 0-4.597 0.828-5.374 4.579-4.295 1.859 0.535 2.675 0.528 4.062-0.033 2.471-0.999 5.073-3.678 5.787-5.958 0.336-1.074 0.785-2.199 0.997-2.5 1.157-1.641 1.745-5.1 1.905-11.208 0.098-3.759 0.35-8.925 0.559-11.481 0.209-2.555 0.422-13.627 0.473-24.602 0.051-10.976 0.275-21.26 0.498-22.853 0.601-4.291 1.614-3.349 1.697 1.577 0.164 9.805 0.803 31.632 1 34.125 0.507 6.429 0.964 17.481 1.011 24.42 0.028 4.11 0.23 7.656 0.449 7.882s0.399 0.954 0.399 1.619c0 1.891 1.365 4.758 3.016 6.336 1.843 1.76 5.917 2.522 8.229 1.537 1.311-0.558 1.707-0.518 2.539 0.255 1.433 1.332 1.851 5.609 0.836 8.563-0.911 2.654-3.183 5.418-4.476 5.445-0.458 0.01-1.297 0.379-1.865 0.82s-1.733 0.803-2.588 0.803c-1.708 0-1.724 0.203-0.417 5.194 0.887 3.386 0.783 10.741-0.184 13.121-0.458 1.126-0.833 2.513-0.833 3.081s-0.453 2.076-1.007 3.35c-1.46 3.36-1.556 3.72-3.079 11.57-0.505 2.604-0.86 4.752-1.109 7.16v148.17zm-849.55 701.38c-2.408 0.249-4.556 0.604-7.16 1.109-7.85 1.524-8.21 1.619-11.57 3.079-1.275 0.554-2.782 1.007-3.35 1.007s-1.954 0.375-3.081 0.833c-2.38 0.968-9.735 1.071-13.121 0.184-4.991-1.307-5.194-1.291-5.194 0.417 0 0.855-0.361 2.02-0.803 2.588s-0.811 1.407-0.82 1.865c-0.027 1.293-2.79 3.565-5.445 4.476-2.954 1.014-7.23 0.597-8.563-0.836-0.773-0.831-0.813-1.228-0.255-2.539 0.984-2.312 0.223-6.387-1.537-8.229-1.578-1.651-4.445-3.016-6.336-3.016-0.665 0-1.393-0.18-1.619-0.399s-3.772-0.422-7.882-0.449c-6.939-0.047-17.991-0.504-24.42-1.011-2.493-0.197-24.32-0.836-34.125-1-4.926-0.082-5.869-1.096-1.577-1.697 1.594-0.223 11.878-0.447 22.853-0.498 10.976-0.051 22.047-0.263 24.602-0.473 2.556-0.209 7.723-0.461 11.481-0.559 6.108-0.16 9.567-0.747 11.208-1.905 0.301-0.212 1.426-0.661 2.5-0.997 2.28-0.714 4.958-3.316 5.958-5.787 0.561-1.388 0.568-2.203 0.033-4.062-1.079-3.751-0.302-4.579 4.295-4.579 3.23 0 4.013 0.202 5.879 1.519h2e-3c2.54 1.791 3.779 3.514 5.405 7.514 0.753 1.853 1.473 2.877 1.946 2.768 4.051-0.937 6.742-1.117 9.84-0.661 8.063 1.188 10.611 1.734 12.709 2.72 1.217 0.572 2.647 1.041 3.178 1.041s1.53 0.217 2.221 0.482c3.718 1.428 8.158 2.41 12.746 2.841h148.18c4.588-0.431 9.028-1.413 12.746-2.841 0.691-0.265 1.69-0.482 2.221-0.482s1.961-0.468 3.178-1.041c2.098-0.987 4.646-1.532 12.709-2.72 3.098-0.457 5.79-0.276 9.84 0.661 0.473 0.109 1.193-0.915 1.946-2.768 1.625-4 2.865-5.723 5.405-7.514h2e-3c1.867-1.316 2.65-1.519 5.879-1.519 4.597 0 5.374 0.828 4.295 4.579-0.535 1.859-0.528 2.675 0.033 4.062 0.999 2.471 3.678 5.073 5.958 5.787 1.074 0.336 2.199 0.785 2.5 0.997 1.641 1.157 5.1 1.745 11.208 1.905 3.759 0.098 8.925 0.35 11.481 0.559 2.555 0.209 13.627 0.422 24.602 0.473 10.976 0.051 21.26 0.275 22.853 0.498 4.291 0.601 3.349 1.614-1.577 1.697-9.804 0.164-31.632 0.803-34.125 1-6.429 0.507-17.481 0.964-24.42 1.011-4.11 0.028-7.656 0.23-7.882 0.449s-0.954 0.399-1.619 0.399c-1.891 0-4.758 1.365-6.336 3.016-1.76 1.843-2.521 5.917-1.537 8.229 0.558 1.311 0.518 1.707-0.255 2.539-1.332 1.433-5.609 1.851-8.563 0.836-2.654-0.911-5.418-3.183-5.445-4.476-0.01-0.458-0.379-1.297-0.82-1.865s-0.803-1.733-0.803-2.588c0-1.708-0.203-1.724-5.194-0.417-3.386 0.887-10.741 0.783-13.121-0.184-1.126-0.458-2.513-0.833-3.081-0.833s-2.076-0.453-3.35-1.007c-3.36-1.46-3.72-1.556-11.57-3.079-2.604-0.505-4.753-0.86-7.16-1.109h-148.17zm-701.38-849.55c-0.249-2.408-0.604-4.556-1.109-7.16-1.523-7.85-1.619-8.21-3.079-11.57-0.554-1.275-1.007-2.782-1.007-3.35s-0.375-1.954-0.833-3.081c-0.968-2.38-1.071-9.735-0.184-13.121 1.307-4.991 1.291-5.194-0.417-5.194-0.855 0-2.02-0.361-2.588-0.803s-1.407-0.811-1.865-0.82c-1.293-0.027-3.565-2.79-4.476-5.445-1.014-2.954-0.597-7.23 0.836-8.563 0.831-0.773 1.228-0.813 2.539-0.255 2.312 0.984 6.387 0.223 8.229-1.537 1.652-1.578 3.016-4.445 3.016-6.336 0-0.665 0.18-1.393 0.399-1.619 0.22-0.225 0.422-3.772 0.449-7.882 0.047-6.939 0.504-17.991 1.011-24.42 0.196-2.493 0.836-24.32 0.999-34.125 0.082-4.926 1.096-5.869 1.697-1.577 0.223 1.594 0.447 11.878 0.498 22.853 0.051 10.976 0.263 22.047 0.473 24.602 0.209 2.556 0.461 7.723 0.559 11.481 0.16 6.108 0.748 9.567 1.905 11.208 0.212 0.301 0.661 1.426 0.997 2.5 0.714 2.28 3.316 4.958 5.787 5.958 1.388 0.561 2.203 0.568 4.062 0.033 3.751-1.079 4.579-0.302 4.579 4.295 0 3.23-0.202 4.013-1.518 5.879v2e-3c-1.791 2.54-3.514 3.779-7.514 5.405-1.853 0.753-2.877 1.473-2.768 1.946 0.937 4.051 1.117 6.742 0.661 9.84-1.188 8.063-1.734 10.611-2.72 12.709-0.572 1.217-1.041 2.647-1.041 3.178s-0.217 1.53-0.482 2.221c-1.428 3.718-2.41 8.158-2.841 12.746v148.18c0.431 4.588 1.413 9.028 2.841 12.746 0.265 0.691 0.482 1.69 0.482 2.221s0.468 1.961 1.041 3.178c0.987 2.098 1.532 4.646 2.72 12.709 0.457 3.098 0.276 5.79-0.661 9.84-0.109 0.473 0.915 1.193 2.768 1.946 4 1.625 5.723 2.865 7.514 5.405v2e-3c1.316 1.867 1.518 2.65 1.518 5.879 0 4.597-0.828 5.374-4.579 4.295-1.86-0.535-2.675-0.528-4.062 0.033-2.471 0.999-5.073 3.678-5.787 5.958-0.336 1.074-0.785 2.199-0.997 2.5-1.157 1.641-1.745 5.1-1.905 11.208-0.098 3.759-0.35 8.925-0.559 11.481-0.209 2.555-0.422 13.627-0.473 24.602-0.051 10.976-0.275 21.26-0.498 22.853-0.601 4.291-1.614 3.349-1.697-1.577-0.164-9.804-0.803-31.632-0.999-34.125-0.507-6.429-0.965-17.481-1.011-24.42-0.028-4.11-0.23-7.656-0.449-7.882-0.22-0.225-0.399-0.954-0.399-1.619 0-1.891-1.365-4.758-3.016-6.336-1.843-1.76-5.917-2.521-8.229-1.537-1.311 0.558-1.707 0.518-2.539-0.255-1.433-1.332-1.851-5.609-0.836-8.563 0.911-2.654 3.183-5.418 4.476-5.445 0.458-0.01 1.297-0.379 1.865-0.82s1.733-0.803 2.588-0.803c1.708 0 1.724-0.203 0.417-5.194-0.887-3.386-0.783-10.741 0.184-13.121 0.458-1.126 0.833-2.513 0.833-3.081s0.453-2.076 1.007-3.35c1.46-3.36 1.556-3.72 3.079-11.57 0.505-2.604 0.86-4.753 1.109-7.16v-148.17zm903.18-700.98c-1.398-3.257-6.687-3.186-8.662 0.117-1.175 1.966-0.946 3.154 1.058 5.472 1.795 2.076 4.334 2.158 6.706 0.216 1.883-1.543 2.107-2.99 0.898-5.805zm-902.78 647.36c-3.257 1.398-3.186 6.687 0.117 8.662 1.966 1.175 3.154 0.946 5.472-1.058 2.076-1.795 2.158-4.334 0.216-6.706-1.543-1.883-2.99-2.107-5.805-0.898zm647.36 902.78c1.398 3.257 6.687 3.186 8.662-0.117 1.175-1.966 0.946-3.155-1.058-5.472-1.795-2.076-4.334-2.158-6.706-0.216-1.883 1.542-2.107 2.989-0.898 5.805zm902.78-647.36c3.257-1.398 3.186-6.687-0.117-8.662-1.966-1.175-3.155-0.946-5.472 1.058-2.076 1.795-2.158 4.334-0.216 6.706 1.542 1.883 2.989 2.107 5.805 0.898zm-5.805-254.53c-1.942 2.371-1.86 4.911 0.216 6.706 2.318 2.004 3.506 2.233 5.472 1.058 3.303-1.974 3.374-7.263 0.117-8.662-2.816-1.209-4.263-0.985-5.805 0.898zm-896.08-642.45c2.371 1.942 4.911 1.861 6.706-0.216 2.004-2.318 2.233-3.506 1.058-5.472-1.974-3.303-7.263-3.374-8.662-0.117-1.209 2.816-0.985 4.263 0.898 5.805zm-642.45 896.08c1.942-2.371 1.861-4.911-0.216-6.706-2.318-2.004-3.506-2.233-5.472-1.058-3.303 1.975-3.374 7.263-0.117 8.662 2.816 1.209 4.263 0.985 5.805-0.898zm896.08 642.45c-2.371-1.942-4.911-1.86-6.706 0.216-2.004 2.318-2.233 3.506-1.058 5.472 1.975 3.303 7.263 3.374 8.662 0.117 1.209-2.816 0.985-4.263-0.898-5.805z"/>
		<path d="m1153.7 40.363c-2.649 0.012-3.615 0.747-2.755 2.097 2.395 3.762-1.455 6.831-9.978 7.955-2.706 0.357-6.151 0.861-7.654 1.121-3.333 0.576-14.893 1.078-15.928 0.691-2.04-0.762-0.095-2.269 2.95-2.287 0.681-4e-3 1.665-0.227 2.187-0.496s2.795-1.306 5.05-2.305c2.714-1.203 4.928-2.663 6.548-4.317 2.947-3.01 3.072-3.22 3.534-5.953 0.294-1.739 0.14-2.431-0.798-3.592-0.951-1.176-1.604-1.438-3.583-1.438-1.642 0-2.752 0.322-3.451 1.003-0.913 0.888-3.343 6.309-3.343 7.456 0 0.241-0.991 1.533-2.203 2.873-3.911 4.325-7.569 5.679-7.685 2.846-0.297-7.261 0.492-9.536 3.721-10.736 2.656-0.987 2.931-1.982 1.507-5.446-1.146-2.789-3.792-4.119-8.006-4.024-1.835 0.041-3.765 0.418-4.483 0.876-1.292 0.824-3.451 6.265-2.857 7.2 0.172 0.27 1.142 0.643 2.157 0.828 2.099 0.383 3.703 1.857 3.953 3.63 0.937 6.654 1.145 8.726 0.914 9.112-0.737 1.232-8.339-2.611-8.339-4.215 0-0.347-0.354-0.917-0.787-1.267s-1.46-2.355-2.283-4.456c-1.821-4.651-2.096-4.956-4.876-5.391-1.849-0.29-2.456-0.137-3.751 0.947-1.437 1.202-1.519 1.479-1.169 3.956 0.308 2.182 0.814 3.102 2.801 5.091 2.158 2.161 3.952 3.18 11.979 6.806 0.602 0.272 2.201 0.674 3.554 0.895 2.014 0.328 2.493 0.626 2.643 1.644l0.183 1.244-8.11-0.332c-11.498-0.471-16.398-0.835-20.008-1.487-2.74-0.495-3.357-0.843-4.743-2.677-1.044-1.382-1.494-2.504-1.306-3.256 1.028-4.105 1.039-4.074-1.456-4.074-3.228 0-8.193 3.045-10.384 6.368-2.208 3.349-2.316 7.861-0.29 12.031 2.532 5.21 6.048 7.666 10.985 7.675 2.187 4e-3 2.558-0.416 1.575-1.782-1.033-1.436-1.024-4.053 0.019-5.504 1.81-2.514 9.894-4.06 24.74-4.732 7.597-0.344 8.338-0.298 8.338 0.517 0 0.492-0.307 0.988-0.683 1.104-10.88 3.346-18.509 7.826-20.171 11.843-1.251 3.024-0.067 7.149 2.256 7.867 0.987 0.305 4.929-1.204 4.929-1.887 0-0.199 0.551-1.044 1.224-1.877s1.634-2.648 2.135-4.032c1.3-3.594 3.477-6.115 6.596-7.64 4.147-2.028 4.82-1.703 4.793 2.311-0.036 5.344-1.831 8.072-5.311 8.072h-1.922l0.263 2.66c0.274 2.777 1.72 4.651 4.797 6.217h1e-3c4.018 2.045 9.955-0.186 12.129-4.556 1.458-2.932 0.92-4.032-2.011-4.109-3.237-0.086-3.981-1.406-4.992-8.85-0.281-2.065-0.177-2.581 0.576-2.862 2.459-0.918 8.834 4.175 11.298 9.026 2.343 4.612 2.842 5.254 4.658 5.993 1.627 0.662 2.068 0.658 3.433-0.029 0.862-0.434 1.72-1.176 1.906-1.65 0.65-1.649 0.329-4.244-0.735-5.943-2.687-4.29-7.085-6.823-16.135-9.294-4.595-1.254-5.502-1.845-4.55-2.961 0.532-0.624 1.624-0.726 5.337-0.497 2.568 0.158 8.143 0.406 12.391 0.551 8.238 0.281 11.598 0.893 13.983 2.546 1.656 1.147 2.497 4.006 1.644 5.588-0.781 1.448 0.12 3.2 1.806 3.514 1.84 0.342 6.569-1.309 8.331-2.909 1.792-1.627 3.147-4.323 3.954-7.866 0.571-2.504 0.532-3.377-0.265-6.046-1.529-5.112-6.454-9.398-10.777-9.379z"/>
		<path d="m40.363 497.87c0.012 2.649 0.747 3.615 2.097 2.755 3.762-2.395 6.831 1.455 7.955 9.978 0.357 2.706 0.861 6.151 1.121 7.654 0.576 3.333 1.078 14.893 0.691 15.928-0.762 2.04-2.269 0.095-2.287-2.95-4e-3 -0.681-0.227-1.665-0.496-2.187s-1.306-2.795-2.305-5.05c-1.203-2.714-2.663-4.928-4.317-6.548-3.01-2.947-3.22-3.072-5.953-3.534-1.739-0.294-2.431-0.14-3.592 0.798-1.176 0.951-1.438 1.604-1.438 3.583 0 1.642 0.322 2.752 1.003 3.451 0.888 0.913 6.309 3.343 7.456 3.343 0.241 0 1.533 0.991 2.873 2.203 4.325 3.911 5.679 7.569 2.846 7.685-7.261 0.297-9.536-0.492-10.736-3.721-0.987-2.656-1.982-2.931-5.446-1.507-2.789 1.146-4.119 3.792-4.024 8.006 0.041 1.835 0.418 3.765 0.876 4.483 0.824 1.292 6.265 3.451 7.2 2.857 0.27-0.172 0.643-1.142 0.828-2.157 0.383-2.099 1.857-3.703 3.63-3.953 6.654-0.937 8.726-1.145 9.112-0.914 1.232 0.737-2.611 8.339-4.215 8.339-0.347 0-0.917 0.354-1.267 0.787s-2.355 1.46-4.456 2.283c-4.651 1.821-4.956 2.096-5.391 4.876-0.29 1.849-0.137 2.456 0.947 3.751 1.202 1.437 1.479 1.519 3.956 1.169 2.182-0.308 3.102-0.815 5.091-2.801 2.161-2.158 3.18-3.952 6.806-11.979 0.272-0.602 0.674-2.201 0.895-3.554 0.328-2.014 0.626-2.493 1.644-2.643l1.244-0.183-0.332 8.11c-0.471 11.498-0.835 16.398-1.487 20.008-0.495 2.74-0.843 3.357-2.677 4.743-1.382 1.044-2.504 1.494-3.256 1.306-4.105-1.028-4.074-1.039-4.074 1.456 0 3.228 3.045 8.193 6.368 10.384 3.349 2.208 7.861 2.316 12.031 0.29 5.21-2.532 7.666-6.048 7.675-10.985 4e-3 -2.187-0.416-2.558-1.782-1.575-1.436 1.034-4.053 1.024-5.504-0.019-2.514-1.81-4.06-9.894-4.732-24.74-0.344-7.597-0.298-8.338 0.517-8.338 0.492 0 0.988 0.308 1.104 0.684 3.346 10.88 7.826 18.509 11.843 20.171 3.024 1.251 7.149 0.067 7.867-2.256 0.305-0.987-1.204-4.929-1.887-4.929-0.199 0-1.044-0.551-1.877-1.224s-2.648-1.634-4.032-2.135c-3.594-1.3-6.115-3.477-7.64-6.596-2.028-4.147-1.703-4.82 2.311-4.793 5.344 0.036 8.072 1.831 8.072 5.311v1.923l2.66-0.263c2.777-0.274 4.651-1.72 6.217-4.797v-1e-3c2.045-4.018-0.186-9.955-4.556-12.129-2.932-1.458-4.032-0.92-4.109 2.011-0.086 3.237-1.406 3.981-8.85 4.992-2.065 0.28-2.581 0.177-2.862-0.576-0.918-2.459 4.175-8.834 9.026-11.298 4.612-2.343 5.254-2.842 5.993-4.658 0.662-1.627 0.658-2.068-0.029-3.433-0.434-0.862-1.176-1.72-1.65-1.906-1.649-0.65-4.244-0.329-5.943 0.735-4.29 2.687-6.823 7.085-9.294 16.135-1.254 4.595-1.845 5.502-2.961 4.55-0.624-0.532-0.726-1.624-0.497-5.337 0.158-2.568 0.406-8.144 0.551-12.391 0.281-8.238 0.893-11.598 2.546-13.983 1.147-1.656 4.006-2.497 5.588-1.644 1.448 0.781 3.2-0.12 3.514-1.806 0.342-1.84-1.309-6.569-2.909-8.331-1.627-1.792-4.323-3.147-7.866-3.954-2.504-0.571-3.377-0.533-6.046 0.265-5.112 1.527-9.398 6.452-9.379 10.775z"/>
		<path d="m497.87 1611.3c2.649-0.012 3.615-0.747 2.755-2.097-2.395-3.762 1.455-6.831 9.978-7.955 2.706-0.357 6.151-0.862 7.654-1.121 3.333-0.576 14.893-1.078 15.928-0.691 2.04 0.762 0.095 2.269-2.95 2.287-0.681 4e-3 -1.665 0.227-2.187 0.495-0.522 0.269-2.795 1.306-5.05 2.305-2.714 1.203-4.928 2.663-6.548 4.317-2.947 3.01-3.072 3.22-3.534 5.953-0.294 1.739-0.14 2.431 0.798 3.592 0.951 1.176 1.604 1.438 3.583 1.438 1.642 0 2.752-0.323 3.451-1.003 0.913-0.889 3.343-6.309 3.343-7.457 0-0.24 0.991-1.533 2.203-2.873 3.911-4.325 7.569-5.679 7.685-2.846 0.297 7.261-0.492 9.536-3.721 10.736-2.656 0.987-2.931 1.982-1.507 5.446 1.146 2.789 3.792 4.119 8.006 4.024 1.835-0.041 3.765-0.418 4.483-0.876 1.292-0.824 3.451-6.265 2.857-7.2-0.172-0.27-1.142-0.643-2.157-0.828-2.099-0.383-3.703-1.857-3.953-3.63-0.937-6.654-1.145-8.726-0.914-9.112 0.737-1.232 8.339 2.611 8.339 4.215 0 0.347 0.354 0.917 0.787 1.267s1.46 2.355 2.283 4.456c1.821 4.651 2.096 4.955 4.876 5.391 1.849 0.29 2.456 0.137 3.751-0.947 1.437-1.202 1.519-1.479 1.169-3.956-0.308-2.182-0.815-3.102-2.801-5.091-2.158-2.161-3.952-3.18-11.979-6.806-0.602-0.272-2.201-0.674-3.554-0.895-2.014-0.328-2.493-0.626-2.643-1.645l-0.183-1.244 8.11 0.332c11.498 0.471 16.398 0.835 20.008 1.487 2.74 0.495 3.357 0.843 4.743 2.677 1.044 1.382 1.494 2.504 1.306 3.256-1.028 4.105-1.039 4.074 1.456 4.074 3.228 0 8.193-3.045 10.384-6.368 2.208-3.349 2.316-7.861 0.29-12.031-2.532-5.21-6.048-7.666-10.985-7.675-2.187-4e-3 -2.558 0.416-1.575 1.782 1.034 1.436 1.024 4.053-0.019 5.504-1.81 2.514-9.894 4.06-24.74 4.732-7.597 0.344-8.338 0.298-8.338-0.517 0-0.492 0.308-0.989 0.684-1.104 10.88-3.346 18.509-7.826 20.171-11.843 1.251-3.023 0.067-7.149-2.256-7.867-0.987-0.305-4.929 1.204-4.929 1.887 0 0.199-0.551 1.044-1.224 1.877s-1.634 2.648-2.135 4.032c-1.3 3.594-3.477 6.115-6.596 7.64-4.147 2.028-4.82 1.703-4.793-2.311 0.036-5.344 1.831-8.072 5.311-8.072h1.923l-0.263-2.66c-0.274-2.777-1.72-4.651-4.797-6.217h-1e-3c-4.018-2.045-9.955 0.186-12.129 4.556-1.458 2.932-0.92 4.032 2.011 4.109 3.237 0.086 3.981 1.406 4.992 8.85 0.28 2.065 0.177 2.581-0.576 2.862-2.459 0.918-8.834-4.175-11.298-9.026-2.343-4.612-2.842-5.254-4.658-5.993-1.627-0.662-2.068-0.658-3.433 0.03-0.862 0.434-1.72 1.176-1.906 1.65-0.65 1.649-0.329 4.244 0.735 5.943 2.687 4.29 7.085 6.823 16.135 9.294 4.595 1.254 5.502 1.845 4.55 2.961-0.532 0.624-1.624 0.726-5.337 0.497-2.568-0.158-8.144-0.406-12.391-0.551-8.238-0.281-11.598-0.893-13.983-2.546-1.656-1.147-2.497-4.006-1.644-5.588 0.781-1.448-0.12-3.2-1.806-3.514-1.84-0.342-6.569 1.309-8.331 2.909-1.792 1.627-3.147 4.323-3.954 7.866-0.571 2.504-0.533 3.377 0.265 6.046 1.527 5.114 6.452 9.4 10.775 9.381z"/>
		<path d="m1611.3 1153.7c-0.012-2.649-0.747-3.615-2.097-2.755-3.762 2.395-6.831-1.455-7.955-9.978-0.357-2.706-0.862-6.151-1.121-7.654-0.576-3.333-1.078-14.893-0.691-15.928 0.762-2.04 2.269-0.095 2.287 2.95 4e-3 0.681 0.227 1.665 0.495 2.187 0.269 0.522 1.306 2.795 2.305 5.05 1.203 2.714 2.663 4.928 4.317 6.548 3.01 2.947 3.22 3.072 5.953 3.534 1.739 0.294 2.431 0.14 3.592-0.798 1.176-0.951 1.438-1.604 1.438-3.583 0-1.642-0.323-2.752-1.003-3.451-0.889-0.913-6.309-3.343-7.457-3.343-0.24 0-1.533-0.991-2.873-2.203-4.325-3.911-5.679-7.569-2.846-7.685 7.261-0.297 9.536 0.492 10.736 3.721 0.987 2.656 1.982 2.931 5.446 1.507 2.789-1.146 4.119-3.792 4.024-8.006-0.041-1.835-0.418-3.765-0.876-4.483-0.824-1.292-6.265-3.451-7.2-2.857-0.27 0.172-0.643 1.142-0.828 2.157-0.383 2.099-1.857 3.703-3.63 3.953-6.654 0.937-8.726 1.145-9.112 0.914-1.232-0.737 2.611-8.339 4.215-8.339 0.347 0 0.917-0.354 1.267-0.787s2.355-1.46 4.456-2.283c4.651-1.821 4.955-2.096 5.391-4.876 0.29-1.849 0.137-2.456-0.947-3.751-1.202-1.437-1.479-1.519-3.956-1.169-2.182 0.308-3.102 0.814-5.091 2.801-2.161 2.158-3.18 3.952-6.806 11.979-0.272 0.602-0.674 2.201-0.895 3.554-0.328 2.014-0.626 2.493-1.645 2.643l-1.244 0.183 0.332-8.11c0.471-11.498 0.835-16.398 1.487-20.008 0.495-2.74 0.843-3.357 2.677-4.743 1.382-1.044 2.504-1.494 3.256-1.306 4.105 1.028 4.074 1.039 4.074-1.456 0-3.228-3.045-8.193-6.368-10.384-3.349-2.208-7.861-2.316-12.031-0.29-5.21 2.532-7.666 6.048-7.675 10.985-4e-3 2.187 0.416 2.558 1.782 1.575 1.436-1.033 4.053-1.024 5.504 0.019 2.514 1.81 4.06 9.894 4.732 24.74 0.344 7.597 0.298 8.338-0.517 8.338-0.492 0-0.989-0.307-1.104-0.683-3.346-10.88-7.826-18.509-11.843-20.171-3.023-1.251-7.149-0.067-7.867 2.256-0.305 0.987 1.204 4.929 1.887 4.929 0.199 0 1.044 0.551 1.877 1.224s2.648 1.634 4.032 2.135c3.594 1.3 6.115 3.477 7.64 6.596 2.028 4.147 1.703 4.82-2.311 4.793-5.344-0.036-8.072-1.831-8.072-5.311v-1.922l-2.66 0.263c-2.777 0.274-4.651 1.72-6.217 4.797v1e-3c-2.045 4.018 0.186 9.955 4.556 12.129 2.932 1.458 4.032 0.92 4.109-2.011 0.086-3.237 1.406-3.981 8.85-4.992 2.065-0.281 2.581-0.177 2.862 0.576 0.918 2.459-4.175 8.834-9.026 11.298-4.612 2.343-5.254 2.842-5.993 4.658-0.662 1.627-0.658 2.068 0.03 3.433 0.434 0.862 1.176 1.72 1.65 1.906 1.649 0.65 4.244 0.329 5.943-0.735 4.29-2.687 6.823-7.085 9.294-16.135 1.254-4.595 1.845-5.502 2.961-4.55 0.624 0.532 0.726 1.624 0.497 5.337-0.158 2.568-0.406 8.143-0.551 12.391-0.281 8.238-0.893 11.598-2.546 13.983-1.147 1.656-4.006 2.497-5.588 1.644-1.448-0.781-3.2 0.12-3.514 1.806-0.342 1.84 1.309 6.569 2.909 8.331 1.627 1.792 4.323 3.147 7.866 3.954 2.504 0.571 3.377 0.532 6.046-0.265 5.114-1.529 9.4-6.454 9.381-10.777z"/>
		<path d="m1611.3 497.87c-0.012 2.649-0.747 3.615-2.097 2.755-3.762-2.395-6.831 1.455-7.955 9.978-0.357 2.706-0.862 6.151-1.121 7.654-0.576 3.333-1.078 14.893-0.691 15.928 0.762 2.04 2.269 0.095 2.287-2.95 4e-3 -0.681 0.227-1.665 0.495-2.187 0.269-0.522 1.306-2.795 2.305-5.05 1.203-2.714 2.663-4.928 4.317-6.548 3.01-2.947 3.22-3.072 5.953-3.534 1.739-0.294 2.431-0.14 3.592 0.798 1.176 0.951 1.438 1.604 1.438 3.583 0 1.642-0.323 2.752-1.003 3.451-0.889 0.913-6.309 3.343-7.457 3.343-0.24 0-1.533 0.991-2.873 2.203-4.325 3.911-5.679 7.569-2.846 7.685 7.261 0.297 9.536-0.492 10.736-3.721 0.987-2.656 1.982-2.931 5.446-1.507 2.789 1.146 4.119 3.792 4.024 8.006-0.041 1.835-0.418 3.765-0.876 4.483-0.824 1.292-6.265 3.451-7.2 2.857-0.27-0.172-0.643-1.142-0.828-2.157-0.383-2.099-1.857-3.703-3.63-3.953-6.654-0.937-8.726-1.145-9.112-0.914-1.232 0.737 2.611 8.339 4.215 8.339 0.347 0 0.917 0.354 1.267 0.787s2.355 1.46 4.456 2.283c4.651 1.821 4.955 2.096 5.391 4.876 0.29 1.849 0.137 2.456-0.947 3.751-1.202 1.437-1.479 1.519-3.956 1.169-2.182-0.308-3.102-0.815-5.091-2.801-2.161-2.158-3.18-3.952-6.806-11.979-0.272-0.602-0.674-2.201-0.895-3.554-0.328-2.014-0.626-2.493-1.645-2.643l-1.244-0.183 0.332 8.11c0.471 11.498 0.835 16.398 1.487 20.008 0.495 2.74 0.843 3.357 2.677 4.743 1.382 1.044 2.504 1.494 3.256 1.306 4.105-1.028 4.074-1.039 4.074 1.456 0 3.228-3.045 8.193-6.368 10.384-3.349 2.208-7.861 2.316-12.031 0.29-5.21-2.532-7.666-6.048-7.675-10.985-4e-3 -2.187 0.416-2.558 1.782-1.575 1.436 1.034 4.053 1.024 5.504-0.019 2.514-1.81 4.06-9.894 4.732-24.74 0.344-7.597 0.298-8.338-0.517-8.338-0.492 0-0.989 0.308-1.104 0.684-3.346 10.88-7.826 18.509-11.843 20.171-3.023 1.251-7.149 0.067-7.867-2.256-0.305-0.987 1.204-4.929 1.887-4.929 0.199 0 1.044-0.551 1.877-1.224s2.648-1.634 4.032-2.135c3.594-1.3 6.115-3.477 7.64-6.596 2.028-4.147 1.703-4.82-2.311-4.793-5.344 0.036-8.072 1.831-8.072 5.311v1.923l-2.66-0.263c-2.777-0.274-4.651-1.72-6.217-4.797v-1e-3c-2.045-4.018 0.186-9.955 4.556-12.129 2.932-1.458 4.032-0.92 4.109 2.011 0.086 3.237 1.406 3.981 8.85 4.992 2.065 0.28 2.581 0.177 2.862-0.576 0.918-2.459-4.175-8.834-9.026-11.298-4.612-2.343-5.254-2.842-5.993-4.658-0.662-1.627-0.658-2.068 0.03-3.433 0.434-0.862 1.176-1.72 1.65-1.906 1.649-0.65 4.244-0.329 5.943 0.735 4.29 2.687 6.823 7.085 9.294 16.135 1.254 4.595 1.845 5.502 2.961 4.55 0.624-0.532 0.726-1.624 0.497-5.337-0.158-2.568-0.406-8.144-0.551-12.391-0.281-8.238-0.893-11.598-2.546-13.983-1.147-1.656-4.006-2.497-5.588-1.644-1.448 0.781-3.2-0.12-3.514-1.806-0.342-1.84 1.309-6.569 2.909-8.331 1.627-1.792 4.323-3.147 7.866-3.954 2.504-0.571 3.377-0.533 6.046 0.265 5.114 1.527 9.4 6.452 9.381 10.775z"/>
		<path d="m497.87 40.363c2.649 0.012 3.615 0.747 2.755 2.097-2.395 3.762 1.455 6.831 9.978 7.955 2.706 0.357 6.151 0.861 7.654 1.121 3.333 0.576 14.893 1.078 15.928 0.691 2.04-0.762 0.095-2.269-2.95-2.287-0.681-4e-3 -1.665-0.227-2.187-0.496s-2.795-1.306-5.05-2.305c-2.714-1.203-4.928-2.663-6.548-4.317-2.947-3.01-3.072-3.22-3.534-5.953-0.294-1.739-0.14-2.431 0.798-3.592 0.951-1.176 1.604-1.438 3.583-1.438 1.642 0 2.752 0.322 3.451 1.003 0.913 0.888 3.343 6.309 3.343 7.456 0 0.241 0.991 1.533 2.203 2.873 3.911 4.325 7.569 5.679 7.685 2.846 0.297-7.261-0.492-9.536-3.721-10.736-2.656-0.987-2.931-1.982-1.507-5.446 1.146-2.789 3.792-4.119 8.006-4.024 1.835 0.041 3.765 0.418 4.483 0.876 1.292 0.824 3.451 6.265 2.857 7.2-0.172 0.27-1.142 0.643-2.157 0.828-2.099 0.383-3.703 1.857-3.953 3.63-0.937 6.654-1.145 8.726-0.914 9.112 0.737 1.232 8.339-2.611 8.339-4.215 0-0.347 0.354-0.917 0.787-1.267s1.46-2.355 2.283-4.456c1.821-4.651 2.096-4.956 4.876-5.391 1.849-0.29 2.456-0.137 3.751 0.947 1.437 1.202 1.519 1.479 1.169 3.956-0.308 2.182-0.815 3.102-2.801 5.091-2.158 2.161-3.952 3.18-11.979 6.806-0.602 0.272-2.201 0.674-3.554 0.895-2.014 0.328-2.493 0.626-2.643 1.644l-0.183 1.244 8.11-0.332c11.498-0.471 16.398-0.835 20.008-1.487 2.74-0.495 3.357-0.843 4.743-2.677 1.044-1.382 1.494-2.504 1.306-3.256-1.028-4.105-1.039-4.074 1.456-4.074 3.228 0 8.193 3.045 10.384 6.368 2.208 3.349 2.316 7.861 0.29 12.031-2.532 5.21-6.048 7.666-10.985 7.675-2.187 4e-3 -2.558-0.416-1.575-1.782 1.034-1.436 1.024-4.053-0.019-5.504-1.81-2.514-9.894-4.06-24.74-4.732-7.597-0.344-8.338-0.298-8.338 0.517 0 0.492 0.308 0.988 0.684 1.104 10.88 3.346 18.509 7.826 20.171 11.843 1.251 3.024 0.067 7.149-2.256 7.867-0.987 0.305-4.929-1.204-4.929-1.887 0-0.199-0.551-1.044-1.224-1.877s-1.634-2.648-2.135-4.032c-1.3-3.594-3.477-6.115-6.596-7.64-4.147-2.028-4.82-1.703-4.793 2.311 0.036 5.344 1.831 8.072 5.311 8.072h1.923l-0.263 2.66c-0.274 2.777-1.72 4.651-4.797 6.217h-1e-3c-4.018 2.045-9.955-0.186-12.129-4.556-1.458-2.932-0.92-4.032 2.011-4.109 3.237-0.086 3.981-1.406 4.992-8.85 0.28-2.065 0.177-2.581-0.576-2.862-2.459-0.918-8.834 4.175-11.298 9.026-2.343 4.612-2.842 5.254-4.658 5.993-1.627 0.662-2.068 0.658-3.433-0.029-0.862-0.434-1.72-1.176-1.906-1.65-0.65-1.649-0.329-4.244 0.735-5.943 2.687-4.29 7.085-6.823 16.135-9.294 4.595-1.254 5.502-1.845 4.55-2.961-0.532-0.624-1.624-0.726-5.337-0.497-2.568 0.158-8.144 0.406-12.391 0.551-8.238 0.281-11.598 0.893-13.983 2.546-1.656 1.147-2.497 4.006-1.644 5.588 0.781 1.448-0.12 3.2-1.806 3.514-1.84 0.342-6.569-1.309-8.331-2.909-1.792-1.627-3.147-4.323-3.954-7.866-0.571-2.504-0.533-3.377 0.265-6.046 1.527-5.112 6.452-9.398 10.775-9.379z"/>
		<path d="m40.363 1153.7c0.012-2.649 0.747-3.615 2.097-2.755 3.762 2.395 6.831-1.455 7.955-9.978 0.357-2.706 0.861-6.151 1.121-7.654 0.576-3.333 1.078-14.893 0.691-15.928-0.762-2.04-2.269-0.095-2.287 2.95-4e-3 0.681-0.227 1.665-0.496 2.187s-1.306 2.795-2.305 5.05c-1.203 2.714-2.663 4.928-4.317 6.548-3.01 2.947-3.22 3.072-5.953 3.534-1.739 0.294-2.431 0.14-3.592-0.798-1.176-0.951-1.438-1.604-1.438-3.583 0-1.642 0.322-2.752 1.003-3.451 0.888-0.913 6.309-3.343 7.456-3.343 0.241 0 1.533-0.991 2.873-2.203 4.325-3.911 5.679-7.569 2.846-7.685-7.261-0.297-9.536 0.492-10.736 3.721-0.987 2.656-1.982 2.931-5.446 1.507-2.789-1.146-4.119-3.792-4.024-8.006 0.041-1.835 0.418-3.765 0.876-4.483 0.824-1.292 6.265-3.451 7.2-2.857 0.27 0.172 0.643 1.142 0.828 2.157 0.383 2.099 1.857 3.703 3.63 3.953 6.654 0.937 8.726 1.145 9.112 0.914 1.232-0.737-2.611-8.339-4.215-8.339-0.347 0-0.917-0.354-1.267-0.787s-2.355-1.46-4.456-2.283c-4.651-1.821-4.956-2.096-5.391-4.876-0.29-1.849-0.137-2.456 0.947-3.751 1.202-1.437 1.479-1.519 3.956-1.169 2.182 0.308 3.102 0.814 5.091 2.801 2.161 2.158 3.18 3.952 6.806 11.979 0.272 0.602 0.674 2.201 0.895 3.554 0.328 2.014 0.626 2.493 1.644 2.643l1.244 0.183-0.332-8.11c-0.471-11.498-0.835-16.398-1.487-20.008-0.495-2.74-0.843-3.357-2.677-4.743-1.382-1.044-2.504-1.494-3.256-1.306-4.105 1.028-4.074 1.039-4.074-1.456 0-3.228 3.045-8.193 6.368-10.384 3.349-2.208 7.861-2.316 12.031-0.29 5.21 2.532 7.666 6.048 7.675 10.985 4e-3 2.187-0.416 2.558-1.782 1.575-1.436-1.033-4.053-1.024-5.504 0.019-2.514 1.81-4.06 9.894-4.732 24.74-0.344 7.597-0.298 8.338 0.517 8.338 0.492 0 0.988-0.307 1.104-0.683 3.346-10.88 7.826-18.509 11.843-20.171 3.024-1.251 7.149-0.067 7.867 2.256 0.305 0.987-1.204 4.929-1.887 4.929-0.199 0-1.044 0.551-1.877 1.224s-2.648 1.634-4.032 2.135c-3.594 1.3-6.115 3.477-7.64 6.596-2.028 4.147-1.703 4.82 2.311 4.793 5.344-0.036 8.072-1.831 8.072-5.311v-1.922l2.66 0.263c2.777 0.274 4.651 1.72 6.217 4.797v1e-3c2.045 4.018-0.186 9.955-4.556 12.129-2.932 1.458-4.032 0.92-4.109-2.011-0.086-3.237-1.406-3.981-8.85-4.992-2.065-0.281-2.581-0.177-2.862 0.576-0.918 2.459 4.175 8.834 9.026 11.298 4.612 2.343 5.254 2.842 5.993 4.658 0.662 1.627 0.658 2.068-0.029 3.433-0.434 0.862-1.176 1.72-1.65 1.906-1.649 0.65-4.244 0.329-5.943-0.735-4.29-2.687-6.823-7.085-9.294-16.135-1.254-4.595-1.845-5.502-2.961-4.55-0.624 0.532-0.726 1.624-0.497 5.337 0.158 2.568 0.406 8.143 0.551 12.391 0.281 8.238 0.893 11.598 2.546 13.983 1.147 1.656 4.006 2.497 5.588 1.644 1.448-0.781 3.2 0.12 3.514 1.806 0.342 1.84-1.309 6.569-2.909 8.331-1.627 1.792-4.323 3.147-7.866 3.954-2.504 0.571-3.377 0.532-6.046-0.265-5.112-1.529-9.398-6.454-9.379-10.777z"/>
		<path d="m1153.7 1611.3c-2.649-0.012-3.615-0.747-2.755-2.097 2.395-3.762-1.455-6.831-9.978-7.955-2.706-0.357-6.151-0.862-7.654-1.121-3.333-0.576-14.893-1.078-15.928-0.691-2.04 0.762-0.095 2.269 2.95 2.287 0.681 4e-3 1.665 0.227 2.187 0.495 0.522 0.269 2.795 1.306 5.05 2.305 2.714 1.203 4.928 2.663 6.548 4.317 2.947 3.01 3.072 3.22 3.534 5.953 0.294 1.739 0.14 2.431-0.798 3.592-0.951 1.176-1.604 1.438-3.583 1.438-1.642 0-2.752-0.323-3.451-1.003-0.913-0.889-3.343-6.309-3.343-7.457 0-0.24-0.991-1.533-2.203-2.873-3.911-4.325-7.569-5.679-7.685-2.846-0.297 7.261 0.492 9.536 3.721 10.736 2.656 0.987 2.931 1.982 1.507 5.446-1.146 2.789-3.792 4.119-8.006 4.024-1.835-0.041-3.765-0.418-4.483-0.876-1.292-0.824-3.451-6.265-2.857-7.2 0.172-0.27 1.142-0.643 2.157-0.828 2.099-0.383 3.703-1.857 3.953-3.63 0.937-6.654 1.145-8.726 0.914-9.112-0.737-1.232-8.339 2.611-8.339 4.215 0 0.347-0.354 0.917-0.787 1.267s-1.46 2.355-2.283 4.456c-1.821 4.651-2.096 4.955-4.876 5.391-1.849 0.29-2.456 0.137-3.751-0.947-1.437-1.202-1.519-1.479-1.169-3.956 0.308-2.182 0.814-3.102 2.801-5.091 2.158-2.161 3.952-3.18 11.979-6.806 0.602-0.272 2.201-0.674 3.554-0.895 2.014-0.328 2.493-0.626 2.643-1.645l0.183-1.244-8.11 0.332c-11.498 0.471-16.398 0.835-20.008 1.487-2.74 0.495-3.357 0.843-4.743 2.677-1.044 1.382-1.494 2.504-1.306 3.256 1.028 4.105 1.039 4.074-1.456 4.074-3.228 0-8.193-3.045-10.384-6.368-2.208-3.349-2.316-7.861-0.29-12.031 2.532-5.21 6.048-7.666 10.985-7.675 2.187-4e-3 2.558 0.416 1.575 1.782-1.033 1.436-1.024 4.053 0.019 5.504 1.81 2.514 9.894 4.06 24.74 4.732 7.597 0.344 8.338 0.298 8.338-0.517 0-0.492-0.307-0.989-0.683-1.104-10.88-3.346-18.509-7.826-20.171-11.843-1.251-3.023-0.067-7.149 2.256-7.867 0.987-0.305 4.929 1.204 4.929 1.887 0 0.199 0.551 1.044 1.224 1.877s1.634 2.648 2.135 4.032c1.3 3.594 3.477 6.115 6.596 7.64 4.147 2.028 4.82 1.703 4.793-2.311-0.036-5.344-1.831-8.072-5.311-8.072h-1.922l0.263-2.66c0.274-2.777 1.72-4.651 4.797-6.217h1e-3c4.018-2.045 9.955 0.186 12.129 4.556 1.458 2.932 0.92 4.032-2.011 4.109-3.237 0.086-3.981 1.406-4.992 8.85-0.281 2.065-0.177 2.581 0.576 2.862 2.459 0.918 8.834-4.175 11.298-9.026 2.343-4.612 2.842-5.254 4.658-5.993 1.627-0.662 2.068-0.658 3.433 0.03 0.862 0.434 1.72 1.176 1.906 1.65 0.65 1.649 0.329 4.244-0.735 5.943-2.687 4.29-7.085 6.823-16.135 9.294-4.595 1.254-5.502 1.845-4.55 2.961 0.532 0.624 1.624 0.726 5.337 0.497 2.568-0.158 8.143-0.406 12.391-0.551 8.238-0.281 11.598-0.893 13.983-2.546 1.656-1.147 2.497-4.006 1.644-5.588-0.781-1.448 0.12-3.2 1.806-3.514 1.84-0.342 6.569 1.309 8.331 2.909 1.792 1.627 3.147 4.323 3.954 7.866 0.571 2.504 0.532 3.377-0.265 6.046-1.529 5.114-6.454 9.4-10.777 9.381z"/>
		<path d="m1183.9 57.41c2.149-1.067 2.775-2.22 2.757-5.08-0.034-5.447-8.233-6.173-9.854-0.873-0.78 2.548 9e-3 4.537 2.348 5.926 2.198 1.305 2.175 1.305 4.749 0.027z"/>
		<path d="m57.41 467.73c-1.067-2.149-2.22-2.775-5.08-2.757-5.447 0.034-6.173 8.233-0.873 9.854 2.548 0.78 4.537-9e-3 5.926-2.348 1.305-2.198 1.305-2.175 0.027-4.749z"/>
		<path d="m467.73 1594.2c-2.149 1.067-2.775 2.22-2.757 5.08 0.034 5.447 8.233 6.173 9.854 0.873 0.78-2.548-9e-3 -4.537-2.348-5.926-2.198-1.305-2.175-1.305-4.749-0.027z"/>
		<path d="m1594.2 1183.9c1.067 2.149 2.22 2.775 5.08 2.757 5.447-0.034 6.173-8.233 0.873-9.854-2.548-0.78-4.537 9e-3 -5.926 2.348-1.305 2.198-1.305 2.175-0.027 4.749z"/>
		<path d="m1594.2 467.73c1.067-2.149 2.22-2.775 5.08-2.757 5.447 0.034 6.173 8.233 0.873 9.854-2.548 0.78-4.537-9e-3 -5.926-2.348-1.305-2.198-1.305-2.175-0.027-4.749z"/>
		<path d="m467.73 57.41c-2.149-1.067-2.775-2.22-2.757-5.08 0.034-5.447 8.233-6.173 9.854-0.873 0.78 2.548-9e-3 4.537-2.348 5.926-2.198 1.305-2.175 1.305-4.749 0.027z"/>
		<path d="m57.41 1183.9c-1.067 2.149-2.22 2.775-5.08 2.757-5.447-0.034-6.173-8.233-0.873-9.854 2.548-0.78 4.537 9e-3 5.926 2.348 1.305 2.198 1.305 2.175 0.027 4.749z"/>
		<path d="m1183.9 1594.2c2.149 1.067 2.775 2.22 2.757 5.08-0.034 5.447-8.233 6.173-9.854 0.873-0.78-2.548 9e-3 -4.537 2.348-5.926 2.198-1.305 2.175-1.305 4.749-0.027z"/>
		<path d="m1231 59.097c-2.224-1.271-3.032-1.429-6.893-1.35-6.04 0.123-16.044 2.354-23.402 5.22-3.394 1.322-6.61 2.403-7.147 2.403-0.907 0-0.896-0.129 0.161-1.792 0.626-0.986 1.138-2.285 1.138-2.888 0-1.088-2.333-3.302-3.48-3.302-0.329 0-2.059 0.877-3.843 1.949-3.944 2.369-7.414 2.875-10.369 1.51-1.095-0.506-1.991-1.122-1.991-1.37s-0.527-0.929-1.172-1.513c-1.268-1.15-1.98-5.268-1.34-7.752 0.899-3.486 6.366-6.49 10.255-5.636 2.179 0.478 3.762 1.262 6.62 3.277 1.831 1.291 2.305 1.407 3.75 0.917 2.242-0.761 3.021-2.533 2.223-5.062-0.34-1.08-0.527-2.053-0.415-2.162 0.284-0.277 3.06 0.551 8.508 2.539 7.255 2.647 12.299 3.697 18.315 3.812 7.365 0.141 11.058-0.902 13.002-3.67 1.324-1.885 1.761-3.656 1.569-6.357-0.103-1.447-2.933-3.47-4.897-3.499-4.642-0.07-5.027 0.057-5.027 1.667 0 3.496-0.634 4.812-3.077 6.387-1.994 1.286-2.832 1.51-4.99 1.337-5.743-0.459-14.965-2.321-17.629-3.559-1.052-0.489-4.497-1.509-7.654-2.268-4.7-1.129-6.434-1.314-9.568-1.022-6.568 0.611-10.902 3.61-13.716 9.494-2.538 5.304-1.277 13.8 2.641 17.797 3.431 3.5 5.509 4.407 10.874 4.746 5.256 0.331 8.499-0.158 14.964-2.259 9.832-3.194 15.386-4.398 19.878-4.309 2.72 0.054 3.412 0.288 4.903 1.658 1.505 1.383 1.736 1.953 1.736 4.284 0 1.479 0.295 2.977 0.656 3.328 0.93 0.905 3.899 0.791 6.106-0.234 2.095-0.972 2.966-2.436 3.436-5.772 0.402-2.855-0.689-4.586-4.125-6.549z"/>
		<path d="m59.097 420.61c-1.271 2.224-1.429 3.032-1.35 6.893 0.123 6.04 2.354 16.044 5.22 23.402 1.322 3.394 2.403 6.61 2.403 7.148 0 0.907-0.129 0.895-1.792-0.161-0.986-0.626-2.285-1.138-2.888-1.138-1.088 0-3.302 2.333-3.302 3.48 0 0.329 0.877 2.059 1.949 3.843 2.369 3.944 2.875 7.414 1.51 10.369-0.506 1.095-1.122 1.991-1.37 1.991s-0.929 0.527-1.513 1.172c-1.15 1.268-5.268 1.98-7.752 1.34-3.486-0.899-6.49-6.366-5.636-10.255 0.478-2.179 1.262-3.762 3.277-6.62 1.291-1.831 1.407-2.305 0.917-3.75-0.761-2.242-2.533-3.021-5.062-2.223-1.08 0.34-2.053 0.527-2.162 0.415-0.277-0.284 0.551-3.06 2.539-8.508 2.647-7.255 3.697-12.299 3.812-18.315 0.141-7.365-0.902-11.058-3.67-13.002-1.885-1.324-3.656-1.761-6.357-1.569-1.447 0.103-3.47 2.933-3.499 4.897-0.07 4.642 0.057 5.027 1.667 5.027 3.496 0 4.812 0.634 6.387 3.077 1.286 1.994 1.51 2.831 1.337 4.99-0.459 5.743-2.321 14.965-3.559 17.629-0.489 1.052-1.509 4.497-2.268 7.654-1.129 4.7-1.314 6.435-1.022 9.568 0.611 6.569 3.61 10.902 9.494 13.716 5.304 2.538 13.8 1.277 17.797-2.641 3.5-3.431 4.407-5.509 4.746-10.874 0.331-5.256-0.158-8.499-2.259-14.964-3.194-9.832-4.398-15.386-4.309-19.878 0.054-2.72 0.288-3.412 1.658-4.903 1.383-1.505 1.953-1.736 4.284-1.736 1.479 0 2.977-0.295 3.328-0.656 0.905-0.93 0.791-3.899-0.234-6.106-0.972-2.095-2.436-2.966-5.772-3.436-2.855-0.403-4.586 0.688-6.549 4.124z"/>
		<path d="m420.61 1592.5c2.224 1.271 3.032 1.429 6.893 1.35 6.04-0.123 16.044-2.354 23.402-5.22 3.394-1.322 6.61-2.403 7.148-2.403 0.907 0 0.895 0.129-0.161 1.792-0.626 0.986-1.138 2.286-1.138 2.888 0 1.088 2.333 3.302 3.48 3.302 0.329 0 2.059-0.877 3.843-1.949 3.944-2.369 7.414-2.875 10.369-1.51 1.095 0.506 1.991 1.122 1.991 1.37s0.527 0.929 1.172 1.513c1.268 1.15 1.98 5.268 1.34 7.752-0.899 3.485-6.366 6.49-10.255 5.636-2.179-0.478-3.762-1.262-6.62-3.277-1.831-1.291-2.305-1.407-3.75-0.917-2.242 0.761-3.021 2.533-2.223 5.063 0.34 1.08 0.527 2.053 0.415 2.162-0.284 0.277-3.06-0.551-8.508-2.539-7.255-2.647-12.299-3.697-18.315-3.812-7.365-0.141-11.058 0.902-13.002 3.67-1.324 1.885-1.761 3.656-1.569 6.358 0.103 1.447 2.933 3.47 4.897 3.499 4.642 0.07 5.027-0.057 5.027-1.667 0-3.495 0.634-4.812 3.077-6.387 1.994-1.286 2.831-1.51 4.99-1.337 5.743 0.459 14.965 2.321 17.629 3.559 1.052 0.489 4.497 1.51 7.654 2.268 4.7 1.129 6.435 1.314 9.568 1.022 6.569-0.611 10.902-3.61 13.716-9.494 2.538-5.304 1.277-13.8-2.641-17.797-3.431-3.5-5.509-4.407-10.874-4.745-5.256-0.332-8.499 0.158-14.964 2.258-9.832 3.194-15.386 4.398-19.878 4.309-2.72-0.054-3.412-0.288-4.903-1.658-1.505-1.383-1.736-1.953-1.736-4.284 0-1.479-0.295-2.977-0.656-3.328-0.93-0.905-3.899-0.791-6.106 0.234-2.095 0.972-2.966 2.436-3.436 5.772-0.403 2.854 0.688 4.584 4.124 6.547z"/>
		<path d="m1592.5 1231c1.271-2.224 1.429-3.032 1.35-6.893-0.123-6.04-2.354-16.044-5.22-23.402-1.322-3.394-2.403-6.61-2.403-7.147 0-0.907 0.129-0.896 1.792 0.161 0.986 0.626 2.286 1.138 2.888 1.138 1.088 0 3.302-2.333 3.302-3.48 0-0.329-0.877-2.059-1.949-3.843-2.369-3.944-2.875-7.414-1.51-10.369 0.506-1.095 1.122-1.991 1.37-1.991s0.929-0.527 1.513-1.172c1.15-1.268 5.268-1.98 7.752-1.34 3.485 0.899 6.49 6.366 5.636 10.255-0.478 2.179-1.262 3.762-3.277 6.62-1.291 1.831-1.407 2.305-0.917 3.75 0.761 2.242 2.533 3.021 5.063 2.223 1.08-0.34 2.053-0.527 2.162-0.415 0.277 0.284-0.551 3.06-2.539 8.508-2.647 7.255-3.697 12.299-3.812 18.315-0.141 7.365 0.902 11.058 3.67 13.002 1.885 1.324 3.656 1.761 6.358 1.569 1.447-0.103 3.47-2.933 3.499-4.897 0.07-4.642-0.057-5.027-1.667-5.027-3.495 0-4.812-0.634-6.387-3.077-1.286-1.994-1.51-2.832-1.337-4.99 0.459-5.743 2.321-14.965 3.559-17.629 0.489-1.052 1.51-4.497 2.268-7.654 1.129-4.7 1.314-6.434 1.022-9.568-0.611-6.568-3.61-10.902-9.494-13.716-5.304-2.538-13.8-1.277-17.797 2.641-3.5 3.431-4.407 5.509-4.745 10.874-0.332 5.256 0.158 8.499 2.258 14.964 3.194 9.832 4.398 15.386 4.309 19.878-0.054 2.72-0.288 3.412-1.658 4.903-1.383 1.505-1.953 1.736-4.284 1.736-1.479 0-2.977 0.295-3.328 0.656-0.905 0.93-0.791 3.899 0.234 6.106 0.972 2.095 2.436 2.966 5.772 3.436 2.854 0.402 4.584-0.689 6.547-4.125z"/>
		<path d="m1592.5 420.61c1.271 2.224 1.429 3.032 1.35 6.893-0.123 6.04-2.354 16.044-5.22 23.402-1.322 3.394-2.403 6.61-2.403 7.148 0 0.907 0.129 0.895 1.792-0.161 0.986-0.626 2.286-1.138 2.888-1.138 1.088 0 3.302 2.333 3.302 3.48 0 0.329-0.877 2.059-1.949 3.843-2.369 3.944-2.875 7.414-1.51 10.369 0.506 1.095 1.122 1.991 1.37 1.991s0.929 0.527 1.513 1.172c1.15 1.268 5.268 1.98 7.752 1.34 3.485-0.899 6.49-6.366 5.636-10.255-0.478-2.179-1.262-3.762-3.277-6.62-1.291-1.831-1.407-2.305-0.917-3.75 0.761-2.242 2.533-3.021 5.063-2.223 1.08 0.34 2.053 0.527 2.162 0.415 0.277-0.284-0.551-3.06-2.539-8.508-2.647-7.255-3.697-12.299-3.812-18.315-0.141-7.365 0.902-11.058 3.67-13.002 1.885-1.324 3.656-1.761 6.358-1.569 1.447 0.103 3.47 2.933 3.499 4.897 0.07 4.642-0.057 5.027-1.667 5.027-3.495 0-4.812 0.634-6.387 3.077-1.286 1.994-1.51 2.831-1.337 4.99 0.459 5.743 2.321 14.965 3.559 17.629 0.489 1.052 1.51 4.497 2.268 7.654 1.129 4.7 1.314 6.435 1.022 9.568-0.611 6.569-3.61 10.902-9.494 13.716-5.304 2.538-13.8 1.277-17.797-2.641-3.5-3.431-4.407-5.509-4.745-10.874-0.332-5.256 0.158-8.499 2.258-14.964 3.194-9.832 4.398-15.386 4.309-19.878-0.054-2.72-0.288-3.412-1.658-4.903-1.383-1.505-1.953-1.736-4.284-1.736-1.479 0-2.977-0.295-3.328-0.656-0.905-0.93-0.791-3.899 0.234-6.106 0.972-2.095 2.436-2.966 5.772-3.436 2.854-0.403 4.584 0.688 6.547 4.124z"/>
		<path d="m420.61 59.097c2.224-1.271 3.032-1.429 6.893-1.35 6.04 0.123 16.044 2.354 23.402 5.22 3.394 1.322 6.61 2.403 7.148 2.403 0.907 0 0.895-0.129-0.161-1.792-0.626-0.986-1.138-2.285-1.138-2.888 0-1.088 2.333-3.302 3.48-3.302 0.329 0 2.059 0.877 3.843 1.949 3.944 2.369 7.414 2.875 10.369 1.51 1.095-0.506 1.991-1.122 1.991-1.37s0.527-0.929 1.172-1.513c1.268-1.15 1.98-5.268 1.34-7.752-0.899-3.486-6.366-6.49-10.255-5.636-2.179 0.478-3.762 1.262-6.62 3.277-1.831 1.291-2.305 1.407-3.75 0.917-2.242-0.761-3.021-2.533-2.223-5.062 0.34-1.08 0.527-2.053 0.415-2.162-0.284-0.277-3.06 0.551-8.508 2.539-7.255 2.647-12.299 3.697-18.315 3.812-7.365 0.141-11.058-0.902-13.002-3.67-1.324-1.885-1.761-3.656-1.569-6.357 0.103-1.447 2.933-3.47 4.897-3.499 4.642-0.07 5.027 0.057 5.027 1.667 0 3.496 0.634 4.812 3.077 6.387 1.994 1.286 2.831 1.51 4.99 1.337 5.743-0.459 14.965-2.321 17.629-3.559 1.052-0.489 4.497-1.509 7.654-2.268 4.7-1.129 6.435-1.314 9.568-1.022 6.569 0.611 10.902 3.61 13.716 9.494 2.538 5.304 1.277 13.8-2.641 17.797-3.431 3.5-5.509 4.407-10.874 4.746-5.256 0.331-8.499-0.158-14.964-2.259-9.832-3.194-15.386-4.398-19.878-4.309-2.72 0.054-3.412 0.288-4.903 1.658-1.505 1.383-1.736 1.953-1.736 4.284 0 1.479-0.295 2.977-0.656 3.328-0.93 0.905-3.899 0.791-6.106-0.234-2.095-0.972-2.966-2.436-3.436-5.772-0.403-2.855 0.688-4.586 4.124-6.549z"/>
		<path d="m59.097 1231c-1.271-2.224-1.429-3.032-1.35-6.893 0.123-6.04 2.354-16.044 5.22-23.402 1.322-3.394 2.403-6.61 2.403-7.147 0-0.907-0.129-0.896-1.792 0.161-0.986 0.626-2.285 1.138-2.888 1.138-1.088 0-3.302-2.333-3.302-3.48 0-0.329 0.877-2.059 1.949-3.843 2.369-3.944 2.875-7.414 1.51-10.369-0.506-1.095-1.122-1.991-1.37-1.991s-0.929-0.527-1.513-1.172c-1.15-1.268-5.268-1.98-7.752-1.34-3.486 0.899-6.49 6.366-5.636 10.255 0.478 2.179 1.262 3.762 3.277 6.62 1.291 1.831 1.407 2.305 0.917 3.75-0.761 2.242-2.533 3.021-5.062 2.223-1.08-0.34-2.053-0.527-2.162-0.415-0.277 0.284 0.551 3.06 2.539 8.508 2.647 7.255 3.697 12.299 3.812 18.315 0.141 7.365-0.902 11.058-3.67 13.002-1.885 1.324-3.656 1.761-6.357 1.569-1.447-0.103-3.47-2.933-3.499-4.897-0.07-4.642 0.057-5.027 1.667-5.027 3.496 0 4.812-0.634 6.387-3.077 1.286-1.994 1.51-2.832 1.337-4.99-0.459-5.743-2.321-14.965-3.559-17.629-0.489-1.052-1.509-4.497-2.268-7.654-1.129-4.7-1.314-6.434-1.022-9.568 0.611-6.568 3.61-10.902 9.494-13.716 5.304-2.538 13.8-1.277 17.797 2.641 3.5 3.431 4.407 5.509 4.746 10.874 0.331 5.256-0.158 8.499-2.259 14.964-3.194 9.832-4.398 15.386-4.309 19.878 0.054 2.72 0.288 3.412 1.658 4.903 1.383 1.505 1.953 1.736 4.284 1.736 1.479 0 2.977 0.295 3.328 0.656 0.905 0.93 0.791 3.899-0.234 6.106-0.972 2.095-2.436 2.966-5.772 3.436-2.855 0.402-4.586-0.689-6.549-4.125z"/>
		<path d="m1231 1592.5c-2.224 1.271-3.032 1.429-6.893 1.35-6.04-0.123-16.044-2.354-23.402-5.22-3.394-1.322-6.61-2.403-7.147-2.403-0.907 0-0.896 0.129 0.161 1.792 0.626 0.986 1.138 2.286 1.138 2.888 0 1.088-2.333 3.302-3.48 3.302-0.329 0-2.059-0.877-3.843-1.949-3.944-2.369-7.414-2.875-10.369-1.51-1.095 0.506-1.991 1.122-1.991 1.37s-0.527 0.929-1.172 1.513c-1.268 1.15-1.98 5.268-1.34 7.752 0.899 3.485 6.366 6.49 10.255 5.636 2.179-0.478 3.762-1.262 6.62-3.277 1.831-1.291 2.305-1.407 3.75-0.917 2.242 0.761 3.021 2.533 2.223 5.063-0.34 1.08-0.527 2.053-0.415 2.162 0.284 0.277 3.06-0.551 8.508-2.539 7.255-2.647 12.299-3.697 18.315-3.812 7.365-0.141 11.058 0.902 13.002 3.67 1.324 1.885 1.761 3.656 1.569 6.358-0.103 1.447-2.933 3.47-4.897 3.499-4.642 0.07-5.027-0.057-5.027-1.667 0-3.495-0.634-4.812-3.077-6.387-1.994-1.286-2.832-1.51-4.99-1.337-5.743 0.459-14.965 2.321-17.629 3.559-1.052 0.489-4.497 1.51-7.654 2.268-4.7 1.129-6.434 1.314-9.568 1.022-6.568-0.611-10.902-3.61-13.716-9.494-2.538-5.304-1.277-13.8 2.641-17.797 3.431-3.5 5.509-4.407 10.874-4.745 5.256-0.332 8.499 0.158 14.964 2.258 9.832 3.194 15.386 4.398 19.878 4.309 2.72-0.054 3.412-0.288 4.903-1.658 1.505-1.383 1.736-1.953 1.736-4.284 0-1.479 0.295-2.977 0.656-3.328 0.93-0.905 3.899-0.791 6.106 0.234 2.095 0.972 2.966 2.436 3.436 5.772 0.402 2.854-0.689 4.584-4.125 6.547z"/>
		<path d="m1408.3 51.221v3.587h-74.532c-0.955 0.039-1.499 0.079-1.563 0.118-0.387 0.233-2.476 0.62-4.644 0.861-4.515 0.501-8.745 1.501-16.516 3.902-4.938 1.526-6.076 1.682-11.755 1.61-3.948-0.05-7.289-0.387-8.978-0.907-1.48-0.455-2.894-0.704-3.144-0.554-0.249 0.15-0.453 1.777-0.453 3.615 0 3.049-0.12 3.395-1.367 3.948-0.752 0.333-1.367 0.808-1.367 1.055s-1.169 1.024-2.597 1.727c-2.593 1.275-8.464 1.965-9.778 1.148h2e-3c-0.36-0.224-0.577-1.976-0.54-4.366 0.055-3.477-0.133-4.309-1.454-6.458-1.572-2.556-1.751-2.647-8.321-4.251-4.945-1.207-20.61-1.758-46.575-1.637-22.463 0.105-25.336-0.056-24.011-1.345 0.355-0.346 13.95-1.102 25.208-1.403 14.341-0.383 25.185-0.841 26.516-1.121 0.752-0.158 4.758-0.526 8.903-0.818 10.912-0.769 15.223-2.004 18.558-5.315 2.02-2.006 2.062-2.131 2.062-6.094 0-3.922 0.047-4.064 1.504-4.613 0.84-0.317 2.787-0.424 4.414-0.244 6.552 0.728 8.862 2.954 9.019 8.688 0.095 3.469 0.143 3.586 1.433 3.446 0.734-0.08 2.063-0.499 2.954-0.931 1.892-0.919 6.895-1.016 11.566-0.225 1.804 0.306 4.708 0.767 6.452 1.025s3.979 0.933 4.965 1.499c2.263 1.3 12.616 3.336 19.505 4.053h74.534zm-126.2-1.239c-2.235-2.175-4.688-2.461-7.026-0.819-2.582 1.814-2.642 4.716-0.151 7.332 1.746 1.834 4.601 1.932 6.512 0.225 0.737-0.659 1.617-2.026 1.956-3.04 0.583-1.741 0.513-1.942-1.291-3.698z"/>
		<path d="m51.221 243.32h3.587v74.532c0.039 0.955 0.079 1.499 0.118 1.564 0.233 0.387 0.62 2.476 0.861 4.644 0.501 4.515 1.501 8.745 3.902 16.516 1.526 4.938 1.682 6.076 1.61 11.755-0.05 3.948-0.387 7.289-0.907 8.978-0.455 1.48-0.704 2.894-0.554 3.144 0.15 0.249 1.777 0.453 3.615 0.453 3.049 0 3.395 0.12 3.948 1.367 0.333 0.752 0.808 1.367 1.055 1.367s1.024 1.169 1.727 2.597c1.275 2.593 1.965 8.464 1.148 9.778v-2e-3c-0.224 0.36-1.976 0.577-4.366 0.54-3.477-0.055-4.309 0.133-6.458 1.454-2.556 1.572-2.647 1.751-4.251 8.32-1.207 4.945-1.758 20.61-1.637 46.575 0.105 22.463-0.056 25.336-1.345 24.011-0.346-0.355-1.102-13.95-1.403-25.208-0.383-14.341-0.841-25.185-1.121-26.516-0.158-0.752-0.526-4.758-0.818-8.903-0.769-10.912-2.004-15.223-5.315-18.558-2.006-2.02-2.131-2.062-6.094-2.062-3.922 0-4.064-0.047-4.613-1.504-0.317-0.84-0.424-2.787-0.244-4.414 0.728-6.552 2.954-8.862 8.688-9.019 3.469-0.095 3.586-0.143 3.446-1.433-0.08-0.734-0.499-2.063-0.931-2.954-0.919-1.892-1.016-6.895-0.225-11.566 0.306-1.804 0.767-4.708 1.025-6.452s0.933-3.979 1.499-4.966c1.3-2.263 3.336-12.616 4.053-19.505v-74.533zm-1.239 126.2c-2.175 2.235-2.461 4.688-0.819 7.026 1.814 2.582 4.716 2.642 7.332 0.151 1.834-1.746 1.932-4.601 0.225-6.512-0.659-0.737-2.026-1.617-3.04-1.956-1.741-0.583-1.942-0.513-3.698 1.291z"/>
		<path d="m243.32 1600.4v-3.587h74.532c0.955-0.039 1.499-0.079 1.564-0.118 0.387-0.233 2.476-0.62 4.644-0.861 4.515-0.502 8.745-1.501 16.516-3.902 4.938-1.526 6.076-1.682 11.755-1.61 3.948 0.05 7.289 0.387 8.978 0.907 1.48 0.455 2.894 0.704 3.144 0.554 0.249-0.15 0.453-1.777 0.453-3.615 0-3.049 0.12-3.396 1.367-3.948 0.752-0.333 1.367-0.808 1.367-1.055s1.169-1.024 2.597-1.727c2.593-1.276 8.464-1.965 9.778-1.148h-2e-3c0.36 0.224 0.577 1.976 0.54 4.365-0.055 3.477 0.133 4.309 1.454 6.458 1.572 2.556 1.751 2.647 8.32 4.251 4.945 1.207 20.61 1.758 46.575 1.636 22.463-0.105 25.336 0.056 24.011 1.345-0.355 0.346-13.95 1.102-25.208 1.403-14.341 0.383-25.185 0.841-26.516 1.121-0.752 0.158-4.758 0.526-8.903 0.818-10.912 0.769-15.223 2.004-18.558 5.315-2.02 2.005-2.062 2.131-2.062 6.094 0 3.922-0.047 4.064-1.504 4.613-0.84 0.317-2.787 0.424-4.414 0.244-6.552-0.728-8.862-2.954-9.019-8.688-0.095-3.469-0.143-3.586-1.433-3.446-0.734 0.08-2.063 0.499-2.954 0.931-1.892 0.919-6.895 1.016-11.566 0.225-1.804-0.306-4.708-0.767-6.452-1.025s-3.979-0.933-4.966-1.499c-2.263-1.3-12.616-3.336-19.505-4.053h-74.533zm126.2 1.239c2.235 2.175 4.688 2.461 7.026 0.819 2.582-1.814 2.642-4.716 0.151-7.332-1.746-1.834-4.601-1.932-6.512-0.225-0.737 0.658-1.617 2.026-1.956 3.04-0.583 1.741-0.513 1.942 1.291 3.698z"/>
		<path d="m1600.4 1408.3h-3.587v-74.532c-0.039-0.955-0.079-1.499-0.118-1.563-0.233-0.387-0.62-2.476-0.861-4.644-0.502-4.515-1.501-8.745-3.902-16.516-1.526-4.938-1.682-6.076-1.61-11.755 0.05-3.948 0.387-7.289 0.907-8.978 0.455-1.48 0.704-2.894 0.554-3.144-0.15-0.249-1.777-0.453-3.615-0.453-3.049 0-3.396-0.12-3.948-1.367-0.333-0.752-0.808-1.367-1.055-1.367s-1.024-1.169-1.727-2.597c-1.276-2.593-1.965-8.464-1.148-9.778v2e-3c0.224-0.36 1.976-0.577 4.365-0.54 3.477 0.055 4.309-0.133 6.458-1.454 2.556-1.572 2.647-1.751 4.251-8.321 1.207-4.945 1.758-20.61 1.636-46.575-0.105-22.463 0.056-25.336 1.345-24.011 0.346 0.355 1.102 13.95 1.403 25.208 0.383 14.341 0.841 25.185 1.121 26.516 0.158 0.752 0.526 4.758 0.818 8.903 0.769 10.912 2.004 15.223 5.315 18.558 2.005 2.02 2.131 2.062 6.094 2.062 3.922 0 4.064 0.047 4.613 1.504 0.317 0.84 0.424 2.787 0.244 4.414-0.728 6.552-2.954 8.862-8.688 9.019-3.469 0.095-3.586 0.143-3.446 1.433 0.08 0.734 0.499 2.063 0.931 2.954 0.919 1.892 1.016 6.895 0.225 11.566-0.306 1.804-0.767 4.708-1.025 6.452s-0.933 3.979-1.499 4.965c-1.3 2.263-3.336 12.616-4.053 19.505v74.534zm1.239-126.2c2.175-2.235 2.461-4.688 0.819-7.026-1.814-2.582-4.716-2.642-7.332-0.151-1.834 1.746-1.932 4.601-0.225 6.512 0.658 0.737 2.026 1.617 3.04 1.956 1.741 0.583 1.942 0.513 3.698-1.291z"/>
		<path d="m1600.4 243.32h-3.587v74.532c-0.039 0.955-0.079 1.499-0.118 1.564-0.233 0.387-0.62 2.476-0.861 4.644-0.502 4.515-1.501 8.745-3.902 16.516-1.526 4.938-1.682 6.076-1.61 11.755 0.05 3.948 0.387 7.289 0.907 8.978 0.455 1.48 0.704 2.894 0.554 3.144-0.15 0.249-1.777 0.453-3.615 0.453-3.049 0-3.396 0.12-3.948 1.367-0.333 0.752-0.808 1.367-1.055 1.367s-1.024 1.169-1.727 2.597c-1.276 2.593-1.965 8.464-1.148 9.778v-2e-3c0.224 0.36 1.976 0.577 4.365 0.54 3.477-0.055 4.309 0.133 6.458 1.454 2.556 1.572 2.647 1.751 4.251 8.32 1.207 4.945 1.758 20.61 1.636 46.575-0.105 22.463 0.056 25.336 1.345 24.011 0.346-0.355 1.102-13.95 1.403-25.208 0.383-14.341 0.841-25.185 1.121-26.516 0.158-0.752 0.526-4.758 0.818-8.903 0.769-10.912 2.004-15.223 5.315-18.558 2.005-2.02 2.131-2.062 6.094-2.062 3.922 0 4.064-0.047 4.613-1.504 0.317-0.84 0.424-2.787 0.244-4.414-0.728-6.552-2.954-8.862-8.688-9.019-3.469-0.095-3.586-0.143-3.446-1.433 0.08-0.734 0.499-2.063 0.931-2.954 0.919-1.892 1.016-6.895 0.225-11.566-0.306-1.804-0.767-4.708-1.025-6.452s-0.933-3.979-1.499-4.966c-1.3-2.263-3.336-12.616-4.053-19.505v-74.533zm1.239 126.2c2.175 2.235 2.461 4.688 0.819 7.026-1.814 2.582-4.716 2.642-7.332 0.151-1.834-1.746-1.932-4.601-0.225-6.512 0.658-0.737 2.026-1.617 3.04-1.956 1.741-0.583 1.942-0.513 3.698 1.291z"/>
		<path d="m243.32 51.221v3.587h74.532c0.955 0.039 1.499 0.079 1.564 0.118 0.387 0.233 2.476 0.62 4.644 0.861 4.515 0.501 8.745 1.501 16.516 3.902 4.938 1.526 6.076 1.682 11.755 1.61 3.948-0.05 7.289-0.387 8.978-0.907 1.48-0.455 2.894-0.704 3.144-0.554 0.249 0.15 0.453 1.777 0.453 3.615 0 3.049 0.12 3.395 1.367 3.948 0.752 0.333 1.367 0.808 1.367 1.055s1.169 1.024 2.597 1.727c2.593 1.275 8.464 1.965 9.778 1.148h-2e-3c0.36-0.224 0.577-1.976 0.54-4.366-0.055-3.477 0.133-4.309 1.454-6.458 1.572-2.556 1.751-2.647 8.32-4.251 4.945-1.207 20.61-1.758 46.575-1.637 22.463 0.105 25.336-0.056 24.011-1.345-0.355-0.346-13.95-1.102-25.208-1.403-14.341-0.383-25.185-0.841-26.516-1.121-0.752-0.158-4.758-0.526-8.903-0.818-10.912-0.769-15.223-2.004-18.558-5.315-2.02-2.006-2.062-2.131-2.062-6.094 0-3.922-0.047-4.064-1.504-4.613-0.84-0.317-2.787-0.424-4.414-0.244-6.552 0.728-8.862 2.954-9.019 8.688-0.095 3.469-0.143 3.586-1.433 3.446-0.734-0.08-2.063-0.499-2.954-0.931-1.892-0.919-6.895-1.016-11.566-0.225-1.804 0.306-4.708 0.767-6.452 1.025s-3.979 0.933-4.966 1.499c-2.263 1.3-12.616 3.336-19.505 4.053h-74.533zm126.2-1.239c2.235-2.175 4.688-2.461 7.026-0.819 2.582 1.814 2.642 4.716 0.151 7.332-1.746 1.834-4.601 1.932-6.512 0.225-0.737-0.659-1.617-2.026-1.956-3.04-0.583-1.741-0.513-1.942 1.291-3.698z"/>
		<path d="m51.221 1408.3h3.587v-74.532c0.039-0.955 0.079-1.499 0.118-1.563 0.233-0.387 0.62-2.476 0.861-4.644 0.501-4.515 1.501-8.745 3.902-16.516 1.526-4.938 1.682-6.076 1.61-11.755-0.05-3.948-0.387-7.289-0.907-8.978-0.455-1.48-0.704-2.894-0.554-3.144 0.15-0.249 1.777-0.453 3.615-0.453 3.049 0 3.395-0.12 3.948-1.367 0.333-0.752 0.808-1.367 1.055-1.367s1.024-1.169 1.727-2.597c1.275-2.593 1.965-8.464 1.148-9.778v2e-3c-0.224-0.36-1.976-0.577-4.366-0.54-3.477 0.055-4.309-0.133-6.458-1.454-2.556-1.572-2.647-1.751-4.251-8.321-1.207-4.945-1.758-20.61-1.637-46.575 0.105-22.463-0.056-25.336-1.345-24.011-0.346 0.355-1.102 13.95-1.403 25.208-0.383 14.341-0.841 25.185-1.121 26.516-0.158 0.752-0.526 4.758-0.818 8.903-0.769 10.912-2.004 15.223-5.315 18.558-2.006 2.02-2.131 2.062-6.094 2.062-3.922 0-4.064 0.047-4.613 1.504-0.317 0.84-0.424 2.787-0.244 4.414 0.728 6.552 2.954 8.862 8.688 9.019 3.469 0.095 3.586 0.143 3.446 1.433-0.08 0.734-0.499 2.063-0.931 2.954-0.919 1.892-1.016 6.895-0.225 11.566 0.306 1.804 0.767 4.708 1.025 6.452s0.933 3.979 1.499 4.965c1.3 2.263 3.336 12.616 4.053 19.505v74.534zm-1.239-126.2c-2.175-2.235-2.461-4.688-0.819-7.026 1.814-2.582 4.716-2.642 7.332-0.151 1.834 1.746 1.932 4.601 0.225 6.512-0.659 0.737-2.026 1.617-3.04 1.956-1.741 0.583-1.942 0.513-3.698-1.291z"/>
		<path d="m1408.3 1600.4v-3.587h-74.532c-0.955-0.039-1.499-0.079-1.563-0.118-0.387-0.233-2.476-0.62-4.644-0.861-4.515-0.502-8.745-1.501-16.516-3.902-4.938-1.526-6.076-1.682-11.755-1.61-3.948 0.05-7.289 0.387-8.978 0.907-1.48 0.455-2.894 0.704-3.144 0.554-0.249-0.15-0.453-1.777-0.453-3.615 0-3.049-0.12-3.396-1.367-3.948-0.752-0.333-1.367-0.808-1.367-1.055s-1.169-1.024-2.597-1.727c-2.593-1.276-8.464-1.965-9.778-1.148h2e-3c-0.36 0.224-0.577 1.976-0.54 4.365 0.055 3.477-0.133 4.309-1.454 6.458-1.572 2.556-1.751 2.647-8.321 4.251-4.945 1.207-20.61 1.758-46.575 1.636-22.463-0.105-25.336 0.056-24.011 1.345 0.355 0.346 13.95 1.102 25.208 1.403 14.341 0.383 25.185 0.841 26.516 1.121 0.752 0.158 4.758 0.526 8.903 0.818 10.912 0.769 15.223 2.004 18.558 5.315 2.02 2.005 2.062 2.131 2.062 6.094 0 3.922 0.047 4.064 1.504 4.613 0.84 0.317 2.787 0.424 4.414 0.244 6.552-0.728 8.862-2.954 9.019-8.688 0.095-3.469 0.143-3.586 1.433-3.446 0.734 0.08 2.063 0.499 2.954 0.931 1.892 0.919 6.895 1.016 11.566 0.225 1.804-0.306 4.708-0.767 6.452-1.025s3.979-0.933 4.965-1.499c2.263-1.3 12.616-3.336 19.505-4.053h74.534zm-126.2 1.239c-2.235 2.175-4.688 2.461-7.026 0.819-2.582-1.814-2.642-4.716-0.151-7.332 1.746-1.834 4.601-1.932 6.512-0.225 0.737 0.658 1.617 2.026 1.956 3.04 0.583 1.741 0.513 1.942-1.291 3.698z"/>
		<path d="m1611.3 1611.3c-0.155-0.579-0.315-1.194-0.474-1.822-0.3-1.183-0.598-2.41-0.851-3.522-0.241-1.085-0.457-2.056-0.614-2.759-0.124-0.605-0.587-2.328-1.03-3.827-1.083-3.668-1.023-7.261 0.16-9.569 1.251-2.441 4.007-3.966 6.381-3.531 1.041 0.191 2.082 0.058 2.528-0.322 1.726-1.471 0.264-6.829-2.238-8.204-0.743-0.409-2.633-0.743-4.2-0.743-2.516 0-2.992 0.187-4.079 1.603-1.987 2.589-2.56 4.063-3.1 7.974-0.426 3.086-0.139 7.168 0.751 11.686 0.223 1.13 0.483 2.286 0.779 3.462 0.287 1.194 0.65 2.325 0.971 3.621 0.112 0.426 0.228 0.854 0.348 1.285-0.43-0.12-0.859-0.237-1.285-0.348-1.296-0.321-2.427-0.684-3.621-0.971-1.175-0.296-2.332-0.556-3.462-0.779-4.518-0.89-8.599-1.177-11.686-0.751-3.911 0.54-5.385 1.113-7.974 3.1-1.416 1.087-1.603 1.563-1.603 4.079 0 1.567 0.334 3.457 0.743 4.2 1.376 2.502 6.733 3.964 8.204 2.238 0.38-0.446 0.513-1.487 0.322-2.528-0.435-2.375 1.09-5.13 3.531-6.381 2.308-1.183 5.9-1.243 9.569-0.16 1.499 0.443 3.222 0.906 3.827 1.03 0.703 0.156 1.674 0.372 2.759 0.614 1.112 0.253 2.338 0.551 3.522 0.851 0.628 0.159 1.244 0.319 1.822 0.474z"/>
		<path d="m40.297 1611.3c0.579-0.155 1.194-0.315 1.822-0.474 1.183-0.3 2.41-0.598 3.522-0.851 1.085-0.241 2.056-0.457 2.759-0.614 0.605-0.124 2.328-0.587 3.827-1.03 3.668-1.083 7.261-1.023 9.569 0.16 2.441 1.251 3.966 4.007 3.531 6.381-0.191 1.041-0.058 2.082 0.322 2.528 1.471 1.726 6.829 0.264 8.204-2.238 0.409-0.743 0.743-2.633 0.743-4.2 0-2.516-0.187-2.992-1.603-4.079-2.589-1.987-4.063-2.56-7.974-3.1-3.086-0.426-7.168-0.139-11.686 0.751-1.129 0.223-2.286 0.483-3.461 0.779-1.194 0.287-2.325 0.65-3.621 0.971-0.426 0.112-0.854 0.228-1.285 0.348 0.12-0.43 0.237-0.859 0.348-1.285 0.321-1.296 0.684-2.427 0.971-3.621 0.296-1.175 0.556-2.332 0.779-3.462 0.89-4.518 1.177-8.599 0.751-11.686-0.54-3.911-1.113-5.385-3.1-7.974-1.087-1.416-1.563-1.603-4.079-1.603-1.567 0-3.457 0.334-4.2 0.743-2.502 1.376-3.964 6.733-2.238 8.204 0.446 0.38 1.487 0.513 2.528 0.322 2.374-0.435 5.13 1.09 6.381 3.531 1.183 2.308 1.243 5.9 0.16 9.569-0.443 1.499-0.906 3.222-1.03 3.827-0.156 0.703-0.372 1.674-0.614 2.759-0.253 1.112-0.551 2.338-0.851 3.522-0.16 0.628-0.32 1.244-0.475 1.822z"/>
		<path d="m40.297 40.297c0.155 0.579 0.315 1.194 0.474 1.822 0.3 1.183 0.598 2.41 0.851 3.522 0.241 1.085 0.457 2.056 0.614 2.759 0.124 0.605 0.587 2.328 1.03 3.827 1.083 3.668 1.023 7.261-0.16 9.569-1.251 2.441-4.007 3.966-6.381 3.531-1.041-0.191-2.082-0.058-2.528 0.322-1.726 1.471-0.264 6.829 2.238 8.204 0.743 0.409 2.633 0.743 4.2 0.743 2.516 0 2.992-0.187 4.079-1.603 1.987-2.589 2.56-4.063 3.1-7.974 0.426-3.086 0.139-7.168-0.751-11.686-0.222-1.129-0.483-2.286-0.779-3.461-0.287-1.194-0.65-2.325-0.971-3.621-0.112-0.426-0.228-0.854-0.348-1.285 0.43 0.12 0.858 0.237 1.285 0.348 1.296 0.321 2.427 0.684 3.621 0.971 1.175 0.296 2.332 0.556 3.461 0.779 4.518 0.89 8.599 1.177 11.686 0.751 3.911-0.54 5.386-1.113 7.974-3.1 1.416-1.087 1.603-1.563 1.603-4.079 0-1.567-0.334-3.457-0.743-4.2-1.376-2.502-6.733-3.964-8.204-2.238-0.38 0.446-0.513 1.487-0.322 2.528 0.435 2.374-1.09 5.13-3.531 6.381-2.308 1.183-5.9 1.243-9.569 0.16-1.499-0.443-3.222-0.906-3.827-1.03-0.703-0.156-1.674-0.372-2.759-0.614-1.112-0.253-2.338-0.551-3.522-0.851-0.627-0.16-1.243-0.32-1.821-0.475z"/>
		<path d="m1611.3 40.297c-0.579 0.155-1.194 0.315-1.822 0.474-1.183 0.3-2.41 0.598-3.522 0.851-1.085 0.241-2.056 0.457-2.759 0.614-0.605 0.124-2.328 0.587-3.827 1.03-3.668 1.083-7.261 1.023-9.569-0.16-2.441-1.251-3.966-4.007-3.531-6.381 0.191-1.041 0.058-2.082-0.322-2.528-1.471-1.726-6.829-0.264-8.204 2.238-0.409 0.743-0.743 2.633-0.743 4.2 0 2.516 0.187 2.992 1.603 4.079 2.589 1.987 4.063 2.56 7.974 3.1 3.086 0.426 7.168 0.139 11.686-0.751 1.13-0.222 2.286-0.483 3.462-0.779 1.194-0.287 2.325-0.65 3.621-0.971 0.426-0.112 0.854-0.228 1.285-0.348-0.12 0.43-0.237 0.858-0.348 1.285-0.321 1.296-0.684 2.427-0.971 3.621-0.296 1.175-0.556 2.332-0.779 3.461-0.89 4.518-1.177 8.599-0.751 11.686 0.54 3.911 1.113 5.386 3.1 7.974 1.087 1.416 1.563 1.603 4.079 1.603 1.567 0 3.457-0.334 4.2-0.743 2.502-1.376 3.964-6.733 2.238-8.204-0.446-0.38-1.487-0.513-2.528-0.322-2.375 0.435-5.13-1.09-6.381-3.531-1.183-2.308-1.243-5.9-0.16-9.569 0.443-1.499 0.906-3.222 1.03-3.827 0.156-0.703 0.372-1.674 0.614-2.759 0.253-1.112 0.551-2.338 0.851-3.522 0.159-0.627 0.319-1.243 0.474-1.821z"/>
		<path d="m1593.7 1593.7c0.142-1.284 0.207-2.749 0.206-4.493-4e-3 -6.772-1.334-9.854-5.184-12.008-3.142-1.758-5.318-1.544-7.679 0.757-0.687 0.669-1.109 1.164-1.365 1.723-0.559 0.255-1.054 0.678-1.723 1.365-2.3 2.361-2.515 4.537-0.757 7.679 2.154 3.849 5.236 5.18 12.008 5.184 1.745-1e-3 3.21-0.065 4.494-0.207zm-7.054-7.054c0.901 0.467 1.581 1.146 2.041 2.041-0.895-0.46-1.574-1.14-2.041-2.041z"/>
		<path d="m57.9 1593.7c1.284 0.142 2.749 0.207 4.492 0.206 6.772-4e-3 9.854-1.334 12.008-5.184 1.758-3.142 1.544-5.318-0.757-7.679-0.669-0.687-1.164-1.109-1.723-1.365-0.255-0.559-0.678-1.054-1.365-1.723-2.361-2.3-4.537-2.515-7.679-0.757-3.849 2.154-5.18 5.236-5.184 12.008 2e-3 1.745 0.066 3.21 0.208 4.494zm7.054-7.054c-0.466 0.901-1.146 1.581-2.041 2.041 0.46-0.895 1.14-1.574 2.041-2.041z"/>
		<path d="m57.9 57.9c-0.142 1.284-0.207 2.749-0.206 4.492 4e-3 6.772 1.334 9.854 5.184 12.008 3.142 1.758 5.318 1.544 7.679-0.757 0.687-0.669 1.109-1.164 1.365-1.723 0.559-0.255 1.054-0.678 1.723-1.365 2.3-2.361 2.515-4.537 0.757-7.679-2.154-3.849-5.236-5.18-12.008-5.184-1.745 2e-3 -3.21 0.066-4.494 0.208zm7.054 7.054c-0.901-0.466-1.581-1.146-2.041-2.041 0.895 0.46 1.575 1.14 2.041 2.041z"/>
		<path d="m1593.7 57.9c-1.284-0.142-2.749-0.207-4.493-0.206-6.772 4e-3 -9.854 1.334-12.008 5.184-1.758 3.142-1.544 5.318 0.757 7.679 0.669 0.687 1.164 1.109 1.723 1.365 0.255 0.559 0.678 1.054 1.365 1.723 2.361 2.3 4.537 2.515 7.679 0.757 3.849-2.154 5.18-5.236 5.184-12.008-1e-3 -1.745-0.065-3.21-0.207-4.494zm-7.054 7.054c0.467-0.901 1.146-1.581 2.041-2.041-0.46 0.895-1.14 1.575-2.041 2.041z"/>
		<path d="m1597.2 54.45c-0.258 2e-3 -0.516 4e-3 -0.774 7e-3 -10.976 0.051-22.047 0.263-24.602 0.473-2.556 0.209-7.723 0.461-11.481 0.559-6.108 0.16-9.567 0.748-11.208 1.905-0.301 0.212-1.426 0.661-2.5 0.997-2.28 0.714-4.958 3.316-5.958 5.787-0.561 1.388-0.568 2.203-0.033 4.062 1.079 3.751 0.302 4.579-4.295 4.579-3.23 0-4.013-0.202-5.879-1.518h-2e-3c-2.54-1.791-3.78-3.514-5.405-7.514-0.753-1.853-1.473-2.877-1.946-2.768-4.051 0.937-6.742 1.117-9.84 0.661-8.063-1.188-10.611-1.734-12.709-2.72-1.217-0.572-2.647-1.041-3.178-1.041s-1.53-0.217-2.221-0.482c-3.718-1.428-8.158-2.41-12.746-2.841h-74.087v-4.253h74.087c2.408-0.249 4.556-0.604 7.16-1.109 7.85-1.523 8.21-1.619 11.57-3.079 1.275-0.554 2.782-1.007 3.35-1.007s1.954-0.375 3.081-0.833c2.38-0.968 9.735-1.071 13.121-0.184 4.991 1.307 5.194 1.291 5.194-0.417 0-0.855 0.361-2.02 0.803-2.588s0.811-1.407 0.82-1.865c0.027-1.293 2.79-3.565 5.445-4.476 2.954-1.014 7.23-0.597 8.563 0.836 0.773 0.831 0.813 1.228 0.255 2.539-0.984 2.312-0.223 6.387 1.537 8.229 1.578 1.652 4.445 3.016 6.336 3.016 0.665 0 1.393 0.18 1.619 0.399 0.226 0.22 3.772 0.422 7.882 0.449 6.939 0.047 17.991 0.504 24.42 1.011 1.246 0.098 7.326 0.307 14.32 0.512 0.635 0.018 1.277 0.036 1.923 0.054 0.018 0.647 0.036 1.289 0.054 1.923 0.205 6.994 0.414 13.074 0.512 14.32 0.507 6.429 0.964 17.481 1.011 24.42 0.028 4.11 0.23 7.657 0.449 7.882s0.399 0.954 0.399 1.619c0 1.891 1.365 4.758 3.016 6.336 1.843 1.76 5.917 2.522 8.229 1.537 1.311-0.558 1.707-0.518 2.539 0.255 1.433 1.332 1.851 5.609 0.836 8.563-0.911 2.654-3.183 5.418-4.476 5.445-0.458 0.01-1.297 0.379-1.865 0.82s-1.733 0.803-2.588 0.803c-1.708 0-1.724 0.203-0.417 5.194 0.887 3.386 0.783 10.741-0.184 13.121-0.458 1.126-0.833 2.513-0.833 3.081s-0.453 2.076-1.007 3.35c-1.46 3.36-1.556 3.72-3.079 11.57-0.505 2.604-0.86 4.752-1.109 7.16v74.087h-4.253v-74.087c-0.431-4.588-1.413-9.028-2.841-12.746-0.265-0.691-0.482-1.69-0.482-2.221s-0.468-1.961-1.041-3.178c-0.987-2.098-1.532-4.646-2.72-12.709-0.457-3.098-0.276-5.79 0.661-9.84 0.109-0.473-0.915-1.193-2.768-1.946-4-1.625-5.723-2.865-7.514-5.405v-2e-3c-1.316-1.867-1.519-2.65-1.519-5.879 0-4.597 0.828-5.374 4.579-4.295 1.859 0.535 2.675 0.528 4.062-0.033 2.471-0.999 5.073-3.678 5.787-5.958 0.336-1.074 0.785-2.199 0.997-2.5 1.157-1.641 1.745-5.1 1.905-11.208 0.098-3.759 0.35-8.925 0.559-11.481 0.209-2.555 0.422-13.627 0.473-24.602 2e-3 -0.26 4e-3 -0.518 6e-3 -0.776zm0 1542.7c-2e-3 -0.258-4e-3 -0.516-7e-3 -0.774-0.051-10.976-0.263-22.047-0.473-24.602-0.209-2.556-0.461-7.723-0.559-11.481-0.16-6.108-0.747-9.567-1.905-11.208-0.212-0.301-0.661-1.426-0.997-2.5-0.714-2.28-3.316-4.958-5.787-5.958-1.388-0.561-2.203-0.568-4.062-0.033-3.751 1.079-4.579 0.302-4.579-4.295 0-3.23 0.202-4.013 1.519-5.879v-2e-3c1.791-2.54 3.514-3.78 7.514-5.405 1.853-0.753 2.877-1.473 2.768-1.946-0.937-4.051-1.117-6.742-0.661-9.84 1.188-8.063 1.734-10.611 2.72-12.709 0.572-1.217 1.041-2.647 1.041-3.178s0.217-1.53 0.482-2.221c1.428-3.718 2.41-8.158 2.841-12.746v-74.087h4.253v74.087c0.249 2.408 0.604 4.556 1.109 7.16 1.524 7.85 1.619 8.21 3.079 11.57 0.554 1.275 1.007 2.782 1.007 3.35s0.375 1.954 0.833 3.081c0.968 2.38 1.071 9.735 0.184 13.121-1.307 4.991-1.291 5.194 0.417 5.194 0.855 0 2.02 0.361 2.588 0.803s1.407 0.811 1.865 0.82c1.293 0.027 3.565 2.79 4.476 5.445 1.014 2.954 0.597 7.23-0.836 8.563-0.831 0.773-1.228 0.813-2.539 0.255-2.312-0.984-6.387-0.223-8.229 1.537-1.651 1.578-3.016 4.445-3.016 6.336 0 0.665-0.18 1.393-0.399 1.619s-0.422 3.772-0.449 7.882c-0.047 6.939-0.504 17.991-1.011 24.42-0.098 1.246-0.307 7.326-0.512 14.32-0.018 0.635-0.036 1.277-0.054 1.923-0.647 0.018-1.289 0.036-1.923 0.054-6.994 0.205-13.074 0.414-14.32 0.512-6.429 0.507-17.481 0.964-24.42 1.011-4.11 0.028-7.656 0.23-7.882 0.449-0.225 0.219-0.954 0.399-1.619 0.399-1.891 0-4.758 1.365-6.336 3.016-1.76 1.843-2.521 5.917-1.537 8.229 0.558 1.311 0.518 1.707-0.255 2.539-1.332 1.433-5.609 1.851-8.563 0.836-2.654-0.911-5.418-3.183-5.445-4.476-0.01-0.458-0.379-1.297-0.82-1.865s-0.803-1.733-0.803-2.588c0-1.708-0.203-1.724-5.194-0.417-3.386 0.887-10.741 0.783-13.121-0.184-1.126-0.458-2.513-0.833-3.081-0.833s-2.076-0.453-3.35-1.007c-3.36-1.46-3.72-1.556-11.57-3.079-2.604-0.505-4.752-0.86-7.16-1.109h-74.087v-4.253h74.087c4.588-0.431 9.028-1.413 12.746-2.841 0.691-0.265 1.69-0.482 2.221-0.482s1.961-0.468 3.178-1.041c2.098-0.987 4.646-1.532 12.709-2.72 3.099-0.457 5.79-0.276 9.84 0.661 0.473 0.109 1.193-0.915 1.946-2.768 1.625-4 2.865-5.723 5.405-7.514h2e-3c1.867-1.316 2.65-1.519 5.879-1.519 4.598 0 5.374 0.828 4.295 4.579-0.535 1.859-0.528 2.675 0.033 4.062 0.999 2.471 3.678 5.073 5.958 5.787 1.074 0.336 2.199 0.785 2.5 0.997 1.641 1.157 5.1 1.745 11.208 1.905 3.759 0.098 8.925 0.35 11.481 0.559 2.555 0.209 13.627 0.422 24.602 0.473 0.259 2e-3 0.518 4e-3 0.775 6e-3zm-1542.7 0c0.258-2e-3 0.516-4e-3 0.774-7e-3 10.976-0.051 22.047-0.263 24.602-0.473 2.556-0.209 7.723-0.461 11.481-0.559 6.108-0.16 9.567-0.747 11.208-1.905 0.301-0.212 1.426-0.661 2.5-0.997 2.28-0.714 4.958-3.316 5.958-5.787 0.561-1.388 0.568-2.203 0.033-4.062-1.079-3.751-0.302-4.579 4.295-4.579 3.23 0 4.013 0.202 5.879 1.519h2e-3c2.54 1.791 3.78 3.514 5.405 7.514 0.753 1.853 1.473 2.877 1.946 2.768 4.051-0.937 6.742-1.117 9.84-0.661 8.063 1.188 10.611 1.734 12.709 2.72 1.217 0.572 2.647 1.041 3.178 1.041s1.53 0.217 2.221 0.482c3.718 1.428 8.158 2.41 12.746 2.841h74.087v4.253h-74.087c-2.408 0.249-4.556 0.604-7.16 1.109-7.85 1.524-8.21 1.619-11.57 3.079-1.275 0.554-2.782 1.007-3.35 1.007s-1.954 0.375-3.081 0.833c-2.38 0.968-9.735 1.071-13.121 0.184-4.991-1.307-5.194-1.291-5.194 0.417 0 0.855-0.361 2.02-0.803 2.588s-0.811 1.407-0.82 1.865c-0.027 1.293-2.79 3.565-5.445 4.476-2.954 1.014-7.23 0.597-8.563-0.836-0.773-0.831-0.813-1.228-0.255-2.539 0.984-2.312 0.223-6.387-1.537-8.229-1.578-1.651-4.445-3.016-6.336-3.016-0.665 0-1.393-0.18-1.619-0.399s-3.772-0.422-7.882-0.449c-6.939-0.047-17.991-0.504-24.42-1.011-1.246-0.098-7.326-0.307-14.32-0.512-0.635-0.018-1.277-0.036-1.923-0.054-0.018-0.647-0.036-1.289-0.054-1.923-0.205-6.994-0.414-13.074-0.512-14.32-0.507-6.429-0.965-17.481-1.011-24.42-0.028-4.11-0.23-7.656-0.449-7.882-0.22-0.225-0.399-0.954-0.399-1.619 0-1.891-1.365-4.758-3.016-6.336-1.843-1.76-5.917-2.521-8.229-1.537-1.311 0.558-1.707 0.518-2.539-0.255-1.433-1.332-1.851-5.609-0.836-8.563 0.911-2.654 3.183-5.418 4.476-5.445 0.458-0.01 1.297-0.379 1.865-0.82 0.568-0.442 1.733-0.803 2.588-0.803 1.708 0 1.724-0.203 0.417-5.194-0.887-3.386-0.783-10.741 0.184-13.121 0.458-1.126 0.833-2.513 0.833-3.081s0.453-2.076 1.007-3.35c1.46-3.36 1.556-3.72 3.079-11.57 0.505-2.604 0.86-4.752 1.109-7.16v-74.087h4.253v74.087c0.431 4.588 1.413 9.028 2.841 12.746 0.265 0.691 0.482 1.69 0.482 2.221s0.468 1.961 1.041 3.178c0.987 2.098 1.532 4.646 2.72 12.709 0.457 3.099 0.276 5.79-0.661 9.84-0.109 0.473 0.915 1.193 2.768 1.946 4 1.625 5.723 2.865 7.514 5.405v2e-3c1.316 1.867 1.518 2.65 1.518 5.879 0 4.598-0.828 5.374-4.579 4.295-1.86-0.535-2.675-0.528-4.062 0.033-2.471 0.999-5.073 3.678-5.787 5.958-0.336 1.074-0.785 2.199-0.997 2.5-1.157 1.641-1.745 5.1-1.905 11.208-0.098 3.759-0.35 8.925-0.559 11.481-0.209 2.555-0.422 13.627-0.473 24.602-1e-3 0.259-3e-3 0.518-5e-3 0.775zm0-1542.7c2e-3 0.258 4e-3 0.516 7e-3 0.774 0.051 10.976 0.263 22.047 0.473 24.602 0.209 2.556 0.461 7.723 0.559 11.481 0.16 6.108 0.748 9.567 1.905 11.208 0.212 0.301 0.661 1.426 0.997 2.5 0.714 2.28 3.316 4.958 5.787 5.958 1.388 0.561 2.203 0.568 4.062 0.033 3.751-1.079 4.579-0.302 4.579 4.295 0 3.23-0.202 4.013-1.518 5.879v2e-3c-1.791 2.54-3.514 3.78-7.514 5.405-1.853 0.753-2.877 1.473-2.768 1.946 0.937 4.051 1.117 6.742 0.661 9.84-1.188 8.063-1.734 10.611-2.72 12.709-0.572 1.217-1.041 2.647-1.041 3.178s-0.217 1.53-0.482 2.221c-1.428 3.718-2.41 8.158-2.841 12.746v74.087h-4.253v-74.087c-0.249-2.408-0.604-4.556-1.109-7.16-1.523-7.85-1.619-8.21-3.079-11.57-0.554-1.275-1.007-2.782-1.007-3.35s-0.375-1.954-0.833-3.081c-0.968-2.38-1.071-9.735-0.184-13.121 1.307-4.991 1.291-5.194-0.417-5.194-0.855 0-2.02-0.361-2.588-0.803s-1.407-0.811-1.865-0.82c-1.293-0.027-3.565-2.79-4.476-5.445-1.014-2.954-0.597-7.23 0.836-8.563 0.831-0.773 1.228-0.813 2.539-0.255 2.312 0.984 6.387 0.223 8.229-1.537 1.652-1.578 3.016-4.445 3.016-6.336 0-0.665 0.18-1.393 0.399-1.619 0.22-0.226 0.422-3.772 0.449-7.882 0.047-6.939 0.504-17.991 1.011-24.42 0.098-1.246 0.307-7.326 0.512-14.32 0.018-0.635 0.036-1.277 0.054-1.923 0.647-0.018 1.289-0.036 1.923-0.054 6.994-0.205 13.074-0.414 14.32-0.512 6.429-0.507 17.481-0.965 24.42-1.011 4.11-0.028 7.657-0.23 7.882-0.449 0.225-0.22 0.954-0.399 1.619-0.399 1.891 0 4.758-1.365 6.336-3.016 1.76-1.843 2.522-5.917 1.537-8.229-0.558-1.311-0.518-1.707 0.255-2.539 1.332-1.433 5.609-1.851 8.563-0.836 2.654 0.911 5.418 3.183 5.445 4.476 0.01 0.458 0.379 1.297 0.82 1.865s0.803 1.733 0.803 2.588c0 1.708 0.203 1.724 5.194 0.417 3.386-0.887 10.741-0.783 13.121 0.184 1.126 0.458 2.513 0.833 3.081 0.833s2.076 0.453 3.35 1.007c3.36 1.46 3.72 1.556 11.57 3.079 2.604 0.505 4.752 0.86 7.16 1.109h74.087v4.253h-74.087c-4.588 0.431-9.028 1.413-12.746 2.841-0.691 0.265-1.69 0.482-2.221 0.482s-1.961 0.468-3.178 1.041c-2.098 0.987-4.646 1.532-12.709 2.72-3.098 0.457-5.79 0.276-9.84-0.661-0.473-0.109-1.193 0.915-1.946 2.768-1.625 4-2.865 5.723-5.405 7.514h-2e-3c-1.867 1.316-2.65 1.518-5.879 1.518-4.597 0-5.374-0.828-4.295-4.579 0.535-1.86 0.528-2.675-0.033-4.062-0.999-2.471-3.678-5.073-5.958-5.787-1.074-0.336-2.199-0.785-2.5-0.997-1.641-1.157-5.1-1.745-11.208-1.905-3.759-0.098-8.925-0.35-11.481-0.559-2.555-0.209-13.627-0.422-24.602-0.473-0.26-1e-3 -0.518-3e-3 -0.776-5e-3zm1481.6-3.714c-1.398-3.257-6.687-3.186-8.662 0.117-1.176 1.966-0.946 3.154 1.058 5.472 1.795 2.076 4.334 2.158 6.706 0.216 1.883-1.543 2.107-2.99 0.898-5.805zm-1485.3 64.867c-3.257 1.398-3.186 6.687 0.117 8.662 1.966 1.175 3.154 0.946 5.472-1.058 2.076-1.795 2.158-4.334 0.216-6.706-1.543-1.883-2.99-2.106-5.805-0.898zm64.867 1485.3c1.398 3.257 6.687 3.186 8.662-0.117 1.175-1.966 0.946-3.155-1.058-5.472-1.795-2.076-4.334-2.158-6.706-0.216-1.883 1.542-2.106 2.989-0.898 5.805zm1485.3-64.868c3.257-1.398 3.186-6.687-0.117-8.662-1.966-1.176-3.155-0.946-5.472 1.058-2.076 1.795-2.158 4.334-0.216 6.706 1.542 1.883 2.989 2.107 5.805 0.898zm-5.805-1419.5c-1.942 2.371-1.86 4.911 0.216 6.706 2.318 2.004 3.506 2.233 5.472 1.058 3.303-1.975 3.374-7.263 0.117-8.662-2.816-1.208-4.263-0.985-5.805 0.898zm-1478.6-59.961c2.371 1.942 4.911 1.861 6.706-0.216 2.004-2.318 2.233-3.506 1.058-5.472-1.975-3.303-7.263-3.374-8.662-0.117-1.208 2.816-0.985 4.263 0.898 5.805zm-59.961 1478.6c1.942-2.371 1.861-4.911-0.216-6.706-2.318-2.004-3.506-2.233-5.472-1.058-3.303 1.974-3.374 7.263-0.117 8.662 2.816 1.209 4.263 0.985 5.805-0.898zm1478.6 59.961c-2.371-1.942-4.911-1.86-6.706 0.216-2.004 2.318-2.233 3.506-1.058 5.472 1.974 3.303 7.263 3.374 8.662 0.117 1.209-2.816 0.985-4.263-0.898-5.805z"/>
</svg>
